<?xml version="1.0" encoding="UTF-8"?>
<svg version="1.1" xmlns="http://www.w3.org/2000/svg" width="500" height="500">
<path d="M0 0 C165 0 330 0 500 0 C500 165 500 330 500 500 C335 500 170 500 0 500 C0 335 0 170 0 0 Z " fill="#FEFEFE" transform="translate(0,0)"/>
<path d="M0 0 C3.50584907 2.83957911 6.78447943 5.83667944 10 9 C10.7734375 9.76054688 11.546875 10.52109375 12.34375 11.3046875 C21.24147743 20.59854663 27.29058088 31.69414926 31 44 C31.21269531 44.69480469 31.42539062 45.38960937 31.64453125 46.10546875 C37.68653038 67.88274618 32.76524343 90.42315861 21.9765625 109.796875 C10.01154615 129.18682244 -7.60364199 140.61202032 -29 147 C-30.33998047 147.4021875 -30.33998047 147.4021875 -31.70703125 147.8125 C-50.12235087 152.33005711 -72.45632131 148.42065764 -88.77099609 138.97460938 C-92.6855204 136.53695328 -96.35826135 133.83084484 -100 131 C-100.82242188 130.36191406 -101.64484375 129.72382813 -102.4921875 129.06640625 C-117.76766589 116.3544597 -127.85460801 96.69674168 -130 77 C-130.15784257 73.56123614 -130.18502906 70.1295162 -130.1875 66.6875 C-130.19974609 65.80126953 -130.21199219 64.91503906 -130.22460938 64.00195312 C-130.23823327 57.7758322 -129.44153484 52.0498907 -128 46 C-127.80857422 45.18233154 -127.61714844 44.36466309 -127.41992188 43.5222168 C-124.43335356 31.41136114 -117.26173395 20.17607604 -109 11 C-108.40960938 10.31679687 -107.81921875 9.63359375 -107.2109375 8.9296875 C-80.28972647 -20.28269043 -31.41737969 -23.27039897 0 0 Z " fill="#FDFDFD" transform="translate(298,114)"/>
<path d="M0 0 C2.42179588 1.24995917 4.56147292 2.49841523 6.8125 4 C7.4820874 4.43223877 8.1516748 4.86447754 8.84155273 5.30981445 C11.23600871 6.86078998 13.61751293 8.43070522 16 10 C18.00461324 11.30690283 20.00985979 12.6128346 22.015625 13.91796875 C27.01866094 17.17788945 32.01433621 20.44880557 37.00665283 23.72509766 C42.68562531 27.45141543 48.3729019 31.1649328 54.0625 34.875 C55.49057983 35.80638794 55.49057983 35.80638794 56.94750977 36.7565918 C63.12043537 40.78040489 69.30334941 44.78845257 75.49243164 48.78735352 C81.67076653 52.7817051 87.83661835 56.79512074 94 60.8125 C94.95583984 61.43511719 95.91167969 62.05773437 96.89648438 62.69921875 C102.62047056 66.43242737 108.32243273 70.19655563 114 74 C111.92452528 78.53003158 109.12967452 80.78304313 104.8125 83.25 C96.46171268 85.47687662 89.58232111 83.75131498 82 80 C78.11468442 77.65839393 74.35852019 75.15036452 70.62374878 72.5788269 C67.63572113 70.52188876 64.62664684 68.49604467 61.62109375 66.46484375 C61.03548172 66.06775711 60.44986969 65.67067047 59.84651184 65.2615509 C55.60127031 62.38759256 51.30883985 59.6146241 46.9375 56.9375 C40.47721564 52.96741917 34.122145 48.84323852 27.7807312 44.68664551 C26.07755683 43.57235087 24.37135192 42.46284569 22.66430664 41.35449219 C17.65541751 38.09309431 12.68498651 34.81044498 7.83203125 31.3203125 C6.6862561 30.51678345 6.6862561 30.51678345 5.51733398 29.69702148 C4.13468726 28.72278733 2.76908871 27.72367388 1.42602539 26.69555664 C-0.59478287 25.18872222 -0.59478287 25.18872222 -4 24 C-7.06016041 24.74670743 -9.41002206 26.24595658 -12 28 C-13.05058594 28.66515625 -14.10117188 29.3303125 -15.18359375 30.015625 C-16.25738281 30.75296875 -17.33117187 31.4903125 -18.4375 32.25 C-25.12921552 36.7941417 -31.92340957 41.16159616 -38.75 45.5 C-47.93316731 51.34536111 -57.02072568 57.31445423 -66.0625 63.375 C-80.92982794 73.32804926 -80.92982794 73.32804926 -88.3125 78 C-88.9216626 78.39106934 -89.5308252 78.78213867 -90.15844727 79.18505859 C-97.16265041 83.56030335 -103.81526963 85.15931025 -112 84 C-116.24066207 82.19250469 -120.01820885 79.53633157 -123 76 C-123 75.01 -123 74.02 -123 73 C-121.58569336 71.80834961 -121.58569336 71.80834961 -119.58984375 70.65234375 C-118.85564209 70.21768799 -118.12144043 69.78303223 -117.36499023 69.33520508 C-116.56391846 68.8739624 -115.76284668 68.41271973 -114.9375 67.9375 C-113.25895331 66.94256887 -111.58188728 65.94513581 -109.90625 64.9453125 C-109.06835938 64.44676758 -108.23046875 63.94822266 -107.3671875 63.43457031 C-104.15675102 61.48897164 -101.04152448 59.42238147 -97.9375 57.3125 C-91.20137287 52.75408485 -84.35889468 48.37110766 -77.5 44 C-70.79378873 39.72406878 -64.09416254 35.4472259 -57.5 31 C-49.83399227 25.82990177 -42.02628671 20.88321964 -34.22802734 15.91577148 C-27.53211335 11.64346616 -20.87888344 7.31950375 -14.32617188 2.83007812 C-9.11762217 -0.70674545 -6.21322862 -1.3504196 0 0 Z " fill="#020202" transform="translate(256,45)"/>
<path d="M0 0 C0.66 0 1.32 0 2 0 C5.32485233 6.16453308 6.57293294 10.10329403 5 17 C4.67 17.66 4.34 18.32 4 19 C4.79921875 18.95359375 5.5984375 18.9071875 6.421875 18.859375 C16.27909238 18.53542889 23.98139855 20.673766 32.875 24.75 C36.3325162 26.13300648 38.31859124 26.53687211 42 26 C44.44625937 24.81284472 46.67828474 23.42874785 49 22 C49.66 22 50.32 22 51 22 C51.3125 24.25 51.3125 24.25 51 27 C46.89189189 31 46.89189189 31 44 31 C44.52956299 32.205354 45.05912598 33.41070801 45.60473633 34.65258789 C47.57868488 39.14577606 49.55222057 43.63914547 51.52563477 48.13256836 C52.37806203 50.07337268 53.23059964 52.01412853 54.08325195 53.95483398 C55.31230569 56.75231239 56.54095595 59.5499677 57.76953125 62.34765625 C58.14777542 63.2083522 58.52601959 64.06904816 58.91572571 64.95582581 C59.62345736 66.5678565 60.32936544 68.18068952 61.03311157 69.79446411 C61.65664578 71.2167865 62.28821129 72.63562801 62.92953491 74.05001831 C64.20319774 76.89638028 65 78.84071903 65 82 C64.21625 82.45375 63.4325 82.9075 62.625 83.375 C59.52716681 85.29270626 59.07186181 86.60577094 58 90 C57 91 57 91 54.22436523 91.11352539 C53.01466064 91.10828857 51.80495605 91.10305176 50.55859375 91.09765625 C49.25341797 91.09443359 47.94824219 91.09121094 46.60351562 91.08789062 C45.2148431 91.07953401 43.82617123 91.07106905 42.4375 91.0625 C41.04492344 91.05748666 39.65234519 91.05292347 38.25976562 91.04882812 C34.8398013 91.03699434 31.41992156 91.0205088 28 91 C27.55011719 90.04867187 27.10023438 89.09734375 26.63671875 88.1171875 C25.0255991 85.04875436 23.88977254 83.79365192 21 82 C21.58629536 77.22653293 23.01851799 73.18492268 24.984375 68.8359375 C25.28184631 68.16261383 25.57931763 67.48929016 25.88580322 66.79556274 C26.8340943 64.65244721 27.79165191 62.51363451 28.75 60.375 C29.99707842 57.57132576 31.24059554 54.76607643 32.484375 51.9609375 C32.78541138 51.28399841 33.08644775 50.60705933 33.39660645 49.90960693 C36.02772804 43.97890013 38.5420217 38.00473511 41 32 C40.41154297 32.02827881 39.82308594 32.05655762 39.21679688 32.08569336 C32.32292926 32.26962865 26.17749017 31.19587529 19.5 29.5625 C18.51257813 29.33240234 17.52515625 29.10230469 16.5078125 28.86523438 C9.3455763 27.17278815 9.3455763 27.17278815 7 26 C7.00444122 26.56883408 7.00888245 27.13766815 7.01345825 27.72373962 C7.05792163 33.67786125 7.0879614 39.63193521 7.10986328 45.58618164 C7.11988174 47.80430011 7.13350026 50.0224055 7.15087891 52.24047852 C7.17531051 55.44029989 7.18652496 58.63994567 7.1953125 61.83984375 C7.20563507 62.82145981 7.21595764 63.80307587 7.22659302 64.81443787 C7.22746297 70.22952689 6.76182099 74.95708599 5.19259644 80.15504456 C5.12903961 80.76387985 5.06548279 81.37271515 5 82 C7.35426499 84.77122275 7.35426499 84.77122275 10 87 C10 90.05447768 9.56930031 91.38325799 7.5 93.625 C7.005 94.07875 6.51 94.5325 6 95 C5.505 96.485 5.505 96.485 5 98 C6.65 98 8.3 98 10 98 C10.33 99.65 10.66 101.3 11 103 C12.98 103.33 14.96 103.66 17 104 C17 105.65 17 107.3 17 109 C18.65 109 20.3 109 22 109 C22 111.31 22 113.62 22 116 C8.14 116 -5.72 116 -20 116 C-20 113.69 -20 111.38 -20 109 C-18.35 109 -16.7 109 -15 109 C-15 107.35 -15 105.7 -15 104 C-12.03 103.505 -12.03 103.505 -9 103 C-8.67 101.35 -8.34 99.7 -8 98 C-6.35 98 -4.7 98 -3 98 C-4.01790655 95.72928539 -4.77442829 94.19215368 -6.6875 92.5625 C-8 91 -8 91 -7.875 88.5 C-7 86 -7 86 -5.375 84.6875 C-4.92125 84.130625 -4.4675 83.57375 -4 83 C-4.22379256 81.14216015 -4.45530184 79.28497375 -4.72238159 77.43286133 C-5.25062797 72.80366473 -5.12096253 68.15343322 -5.09765625 63.5 C-5.0962413 62.42371338 -5.09482635 61.34742676 -5.09336853 60.23852539 C-5.0878038 56.82565445 -5.07525787 53.41285087 -5.0625 50 C-5.05748044 47.6757822 -5.05291833 45.35156337 -5.04882812 43.02734375 C-5.03784593 37.3515398 -5.0211432 31.67577471 -5 26 C-5.76981201 26.19698486 -6.53962402 26.39396973 -7.33276367 26.59692383 C-13.30563327 28.11040905 -19.25902695 29.53764432 -25.3125 30.6875 C-26.60800781 30.93886719 -27.90351563 31.19023437 -29.23828125 31.44921875 C-32.8879127 31.98358846 -36.31788547 32.10003157 -40 32 C-39.71914551 32.60658447 -39.43829102 33.21316895 -39.14892578 33.83813477 C-33.77786538 45.45509563 -28.4590883 57.09409988 -23.3125 68.8125 C-22.6620874 70.27828491 -22.6620874 70.27828491 -21.99853516 71.77368164 C-21.60327637 72.67981201 -21.20801758 73.58594238 -20.80078125 74.51953125 C-20.45184814 75.31464111 -20.10291504 76.10975098 -19.7434082 76.92895508 C-19 79 -19 79 -19 82 C-21 83.33333333 -23 84.66666667 -25 86 C-25.4343335 86.85730713 -25.86866699 87.71461426 -26.31616211 88.59790039 C-28 91 -28 91 -30.78735352 91.59936523 C-31.89006592 91.58591064 -32.99277832 91.57245605 -34.12890625 91.55859375 C-35.32837891 91.55150391 -36.52785156 91.54441406 -37.76367188 91.53710938 C-39.6440918 91.48780273 -39.6440918 91.48780273 -41.5625 91.4375 C-43.4487207 91.42879883 -43.4487207 91.42879883 -45.37304688 91.41992188 C-54.70558291 91.29441709 -54.70558291 91.29441709 -57 89 C-57 87.68 -57 86.36 -57 85 C-57.804375 84.773125 -58.60875 84.54625 -59.4375 84.3125 C-62 83 -62 83 -62.89575195 80.99804688 C-63.05634472 76.37959446 -61.1329439 72.86339402 -59.23046875 68.71875 C-58.83426834 67.82764526 -58.43806793 66.93654053 -58.02986145 66.01843262 C-56.76156787 63.17316948 -55.47501094 60.33661141 -54.1875 57.5 C-53.33143452 55.59040263 -52.47660245 53.68025182 -51.62304688 51.76953125 C-50.41862388 49.07410684 -49.21243389 46.37964155 -47.99662781 43.68933105 C-46.24893914 39.82160225 -44.52615587 35.96226139 -43 32 C-45.31 30.02 -47.62 28.04 -50 26 C-49.67 24.68 -49.34 23.36 -49 22 C-46.48935405 22.44832963 -45.14602438 22.87411692 -43.1875 24.5625 C-40.01445395 26.64764455 -37.75244592 26.27163518 -34 26 C-30.65850137 24.75983411 -30.65850137 24.75983411 -27.375 23.0625 C-19.29981515 19.27513996 -11.77992273 19 -3 19 C-3.350625 18.113125 -3.70125 17.22625 -4.0625 16.3125 C-5.86086597 9.95827358 -2.95318856 5.53551159 0 0 Z " fill="#FCCF56" transform="translate(249,123)"/>
<path d="M0 0 C0.66 0 1.32 0 2 0 C5.3284547 6.17121215 6.50717296 10.09212392 5 17 C2.69 17.66 0.38 18.32 -2 19 C-5.02114804 13.80362538 -5.02114804 13.80362538 -4.9375 10.625 C-3.61235595 6.91459667 -1.85249708 3.47235499 0 0 Z M-1 21 C-1 39.48 -1 57.96 -1 77 C-4 74 -4 74 -4.36076355 71.81697083 C-4.35410172 70.97091782 -4.34743988 70.12486481 -4.34057617 69.25317383 C-4.34023628 67.81201958 -4.34023628 67.81201958 -4.33988953 66.3417511 C-4.32440567 65.30729355 -4.30892181 64.272836 -4.29296875 63.20703125 C-4.28872391 62.14586594 -4.28447906 61.08470062 -4.28010559 59.99137878 C-4.26329706 56.59816235 -4.22564019 53.20553728 -4.1875 49.8125 C-4.172456 47.51368044 -4.15876711 45.21485159 -4.14648438 42.91601562 C-4.11338645 37.27714158 -4.0631653 31.63861303 -4 26 C-4.62258698 26.14720993 -5.24517395 26.29441986 -5.8866272 26.4460907 C-8.74864665 27.11943382 -11.61255777 27.78437273 -14.4765625 28.44921875 C-15.45568604 28.68088745 -16.43480957 28.91255615 -17.44360352 29.15124512 C-24.99606403 30.89521128 -32.23341438 31.85421085 -40 32 C-39.71914551 32.60658447 -39.43829102 33.21316895 -39.14892578 33.83813477 C-33.77786538 45.45509563 -28.4590883 57.09409988 -23.3125 68.8125 C-22.6620874 70.27828491 -22.6620874 70.27828491 -21.99853516 71.77368164 C-21.60327637 72.67981201 -21.20801758 73.58594238 -20.80078125 74.51953125 C-20.45184814 75.31464111 -20.10291504 76.10975098 -19.7434082 76.92895508 C-19 79 -19 79 -19 82 C-21 83.33333333 -23 84.66666667 -25 86 C-25.4343335 86.85730713 -25.86866699 87.71461426 -26.31616211 88.59790039 C-28 91 -28 91 -30.78735352 91.59936523 C-31.89006592 91.58591064 -32.99277832 91.57245605 -34.12890625 91.55859375 C-35.32837891 91.55150391 -36.52785156 91.54441406 -37.76367188 91.53710938 C-39.6440918 91.48780273 -39.6440918 91.48780273 -41.5625 91.4375 C-43.4487207 91.42879883 -43.4487207 91.42879883 -45.37304688 91.41992188 C-54.70558291 91.29441709 -54.70558291 91.29441709 -57 89 C-57 87.68 -57 86.36 -57 85 C-57.804375 84.773125 -58.60875 84.54625 -59.4375 84.3125 C-62 83 -62 83 -62.89575195 80.99804688 C-63.05634472 76.37959446 -61.1329439 72.86339402 -59.23046875 68.71875 C-58.63616814 67.3820929 -58.63616814 67.3820929 -58.02986145 66.01843262 C-56.76156787 63.17316948 -55.47501094 60.33661141 -54.1875 57.5 C-53.33143452 55.59040263 -52.47660245 53.68025182 -51.62304688 51.76953125 C-50.41862388 49.07410684 -49.21243389 46.37964155 -47.99662781 43.68933105 C-46.24893914 39.82160225 -44.52615587 35.96226139 -43 32 C-45.31 30.02 -47.62 28.04 -50 26 C-49.67 24.68 -49.34 23.36 -49 22 C-46.48935405 22.44832963 -45.14602438 22.87411692 -43.1875 24.5625 C-40.0113305 26.6496971 -37.75875138 26.27069197 -34 26 C-30.48851746 24.76621339 -30.48851746 24.76621339 -27.0625 23.0625 C-19.03108363 19.40685729 -9.43862322 16.78068839 -1 21 Z " fill="#FBCE54" transform="translate(249,123)"/>
<path d="M0 0 C2.51965788 2.20130358 4.91165099 4.48226806 7.28515625 6.83984375 C8.40664063 7.89171875 8.40664063 7.89171875 9.55078125 8.96484375 C24.8094169 24.33018315 31.54411749 46.18253419 31.53393555 67.38134766 C31.22787643 90.47009504 20.72522247 110.80750343 4.98046875 127.24609375 C-11.67419832 143.19088977 -34.00005549 150.27450499 -56.67138672 150.20654297 C-75.42859231 149.78424814 -92.01592832 142.2692808 -106.71484375 130.83984375 C-107.31167969 130.40671875 -107.90851563 129.97359375 -108.5234375 129.52734375 C-123.6512476 117.78844261 -133.51896785 97.29881076 -136.71484375 78.83984375 C-136.9618425 74.32163786 -136.94602194 69.80163723 -136.96484375 65.27734375 C-136.98546875 64.06498047 -137.00609375 62.85261719 -137.02734375 61.60351562 C-137.07541056 50.39794041 -135.01799465 40.49890872 -130.15234375 30.40234375 C-129.81082275 29.68643066 -129.46930176 28.97051758 -129.11743164 28.23291016 C-125.53574232 21.02460998 -120.9652351 14.90734899 -115.71484375 8.83984375 C-115.1425 8.16695312 -114.57015625 7.4940625 -113.98046875 6.80078125 C-84.57820906 -25.07592604 -33.02586673 -26.27813569 0 0 Z M-114.37109375 10.05078125 C-130.74393923 29.53446737 -136.05677624 50.83853514 -134.71484375 75.83984375 C-132.55303577 96.87757242 -121.19527829 116.68925781 -104.91430664 130.00537109 C-87.52266179 143.51923682 -65.64713108 149.83413133 -43.71484375 147.83984375 C-22.2496451 144.61269604 -1.51205718 133.85993794 11.89453125 116.59765625 C25.34383079 98.28020534 31.66097197 77.14775432 28.53515625 54.46484375 C25.62528497 37.64779454 19.70761445 23.64051446 8.28515625 10.83984375 C7.56972656 10.01871094 6.85429687 9.19757813 6.1171875 8.3515625 C-8.11210758 -6.97412717 -27.60211612 -15.55222426 -48.41796875 -16.37890625 C-73.93083625 -17.02782791 -96.54918886 -8.63907355 -114.37109375 10.05078125 Z " fill="#1C1C1C" transform="translate(302.71484375,115.16015625)"/>
<path d="M0 0 C2.22056326 2.04173758 3.57544852 3.82774224 4.79345703 6.58178711 C5.11033478 7.28939682 5.42721252 7.99700653 5.75369263 8.72605896 C6.08505219 9.48548294 6.41641174 10.24490692 6.7578125 11.02734375 C7.1063327 11.81266983 7.45485291 12.59799591 7.81393433 13.40711975 C8.54835774 15.06577585 9.27941233 16.72592715 10.00732422 18.38745117 C11.12076774 20.92784384 12.24500414 23.46323834 13.37109375 25.99804688 C14.08397461 27.61169602 14.79623512 29.22561939 15.5078125 30.83984375 C15.84322052 31.5972435 16.17862854 32.35464325 16.52420044 33.13499451 C16.83477386 33.84575638 17.14534729 34.55651825 17.46533203 35.28881836 C17.73830109 35.91042343 18.01127014 36.5320285 18.29251099 37.17247009 C19.03546151 39.09160138 19.54187527 40.99549241 20 43 C19.15074951 42.83773926 18.30149902 42.67547852 17.42651367 42.50830078 C13.95439297 41.9932345 10.68410316 41.87058586 7.17578125 41.8671875 C5.26249023 41.86525391 5.26249023 41.86525391 3.31054688 41.86328125 C1.99119141 41.86714844 0.67183594 41.87101562 -0.6875 41.875 C-2.03190199 41.87143524 -3.37630313 41.86753206 -4.72070312 41.86328125 C-5.99236328 41.86457031 -7.26402344 41.86585938 -8.57421875 41.8671875 C-9.73526123 41.86831543 -10.89630371 41.86944336 -12.0925293 41.87060547 C-15.0663586 41.87004372 -15.0663586 41.87004372 -18 43 C-16.12185409 37.06612186 -13.97144145 31.36129551 -11.42578125 25.68359375 C-11.09708542 24.94166275 -10.76838959 24.19973175 -10.42973328 23.43531799 C-9.39450954 21.10097727 -8.35362122 18.76921547 -7.3125 16.4375 C-6.60313681 14.84066302 -5.89414914 13.24365917 -5.18554688 11.64648438 C-3.46135853 7.76238377 -1.73209057 3.88058271 0 0 Z " fill="#FDFCF9" transform="translate(291,159)"/>
<path d="M0 0 C2.34504977 2.13074471 3.6515419 4.01749208 4.90112305 6.9206543 C5.24124924 7.70123703 5.58137543 8.48181976 5.93180847 9.28605652 C6.28817886 10.12365005 6.64454926 10.96124359 7.01171875 11.82421875 C7.57135063 13.11632011 7.57135063 13.11632011 8.14228821 14.43452454 C9.33073818 17.1826759 10.5092188 19.93497557 11.6875 22.6875 C12.49218498 24.55301642 13.29751591 26.41825436 14.10351562 28.28320312 C16.07651648 32.85227274 18.04058793 37.42508742 20 42 C17.43261676 43.28369162 16.73866312 42.69244018 14 42 C11.96125054 41.90754366 9.91974994 41.86932211 7.87890625 41.8671875 C6.10483398 41.86525391 6.10483398 41.86525391 4.29492188 41.86328125 C3.06322266 41.86714844 1.83152344 41.87101562 0.5625 41.875 C-0.66533203 41.87113281 -1.89316406 41.86726563 -3.15820312 41.86328125 C-4.34220703 41.86457031 -5.52621094 41.86585938 -6.74609375 41.8671875 C-7.82560303 41.86831543 -8.9051123 41.86944336 -10.01733398 41.87060547 C-12.79061871 41.99091658 -15.30156557 42.37091713 -18 43 C-16.12185409 37.06612186 -13.97144145 31.36129551 -11.42578125 25.68359375 C-11.09708542 24.94166275 -10.76838959 24.19973175 -10.42973328 23.43531799 C-9.39450954 21.10097727 -8.35362122 18.76921547 -7.3125 16.4375 C-6.60313681 14.84066302 -5.89414914 13.24365917 -5.18554688 11.64648438 C-3.46135853 7.76238377 -1.73209057 3.88058271 0 0 Z " fill="#FDFCF9" transform="translate(207,159)"/>
<path d="M0 0 C3.48283261 0.79843594 5.00535734 2.59169815 6.9765625 5.453125 C6.9765625 8.50760268 6.54586281 9.83638299 4.4765625 12.078125 C3.9815625 12.531875 3.4865625 12.985625 2.9765625 13.453125 C2.6465625 14.443125 2.3165625 15.433125 1.9765625 16.453125 C3.6265625 16.453125 5.2765625 16.453125 6.9765625 16.453125 C7.3065625 18.103125 7.6365625 19.753125 7.9765625 21.453125 C9.9565625 21.783125 11.9365625 22.113125 13.9765625 22.453125 C13.9765625 24.103125 13.9765625 25.753125 13.9765625 27.453125 C15.6265625 27.453125 17.2765625 27.453125 18.9765625 27.453125 C18.9765625 29.763125 18.9765625 32.073125 18.9765625 34.453125 C5.1165625 34.453125 -8.7434375 34.453125 -23.0234375 34.453125 C-23.0234375 32.143125 -23.0234375 29.833125 -23.0234375 27.453125 C-21.3734375 27.453125 -19.7234375 27.453125 -18.0234375 27.453125 C-18.0234375 25.803125 -18.0234375 24.153125 -18.0234375 22.453125 C-16.0434375 22.123125 -14.0634375 21.793125 -12.0234375 21.453125 C-11.6934375 19.803125 -11.3634375 18.153125 -11.0234375 16.453125 C-9.3734375 16.453125 -7.7234375 16.453125 -6.0234375 16.453125 C-7.04134405 14.18241039 -7.79786579 12.64527868 -9.7109375 11.015625 C-11.0234375 9.453125 -11.0234375 9.453125 -10.9609375 7.015625 C-8.91992609 1.43686048 -6.02719821 -0.31603287 0 0 Z " fill="#F5BB4D" transform="translate(252.0234375,204.546875)"/>
<path d="M0 0 C79.86 0 159.72 0 242 0 C242 0.99 242 1.98 242 3 C162.14 3 82.28 3 0 3 C0 2.01 0 1.02 0 0 Z " fill="#F6BD50" transform="translate(129,341)"/>
<path d="M0 0 C0.66 0 1.32 0 2 0 C6.93688416 10.17206947 11.58522015 20.4658532 16.10635376 30.82830811 C16.70211975 32.19277355 17.29975679 33.55642357 17.89926147 34.91925049 C18.75104071 36.85780286 19.59530911 38.79945367 20.4375 40.7421875 C20.93121094 41.8751123 21.42492187 43.00803711 21.93359375 44.17529297 C23 47 23 47 23 50 C22.21625 50.45375 21.4325 50.9075 20.625 51.375 C17.52716681 53.29270626 17.07186181 54.60577094 16 58 C15 59 15 59 12.22436523 59.11352539 C11.01466064 59.10828857 9.80495605 59.10305176 8.55859375 59.09765625 C7.25341797 59.09443359 5.94824219 59.09121094 4.60351562 59.08789062 C3.2148431 59.07953401 1.82617123 59.07106905 0.4375 59.0625 C-0.95507656 59.05748666 -2.34765481 59.05292347 -3.74023438 59.04882812 C-7.1601987 59.03699434 -10.58007844 59.0205088 -14 59 C-14.44988281 58.04867187 -14.89976562 57.09734375 -15.36328125 56.1171875 C-16.9744009 53.04875436 -18.11022746 51.79365192 -21 50 C-20.41103985 45.23821389 -18.99473104 41.18425627 -17.05078125 36.8359375 C-16.75568161 36.16261383 -16.46058197 35.48929016 -16.15653992 34.79556274 C-15.53181946 33.37384324 -14.90380963 31.95356509 -14.27270508 30.53466797 C-13.32595194 28.40525576 -12.38963462 26.2715075 -11.45507812 24.13671875 C-7.8621337 15.96876556 -4.08663147 7.93504154 0 0 Z M0 4 C-2.59275479 9.79756596 -5.17332763 15.60043844 -7.74536133 21.40722656 C-8.62242162 23.38341654 -9.50229959 25.35835844 -10.38500977 27.33203125 C-11.65076524 30.16345731 -12.90643513 32.99916614 -14.16015625 35.8359375 C-14.55904556 36.72243988 -14.95793488 37.60894226 -15.36891174 38.52230835 C-15.72936081 39.34300812 -16.08980988 40.16370789 -16.46118164 41.00927734 C-16.78317032 41.73319672 -17.105159 42.45711609 -17.43690491 43.20297241 C-18.25179954 45.07489913 -18.25179954 45.07489913 -17 47 C-16.01 46.505 -16.01 46.505 -15 46 C-12.89241949 45.90239272 -10.78171353 45.86922796 -8.671875 45.8671875 C-7.39699219 45.86589844 -6.12210937 45.86460937 -4.80859375 45.86328125 C-4.1419873 45.86537598 -3.47538086 45.8674707 -2.78857422 45.86962891 C-0.77173202 45.87494274 1.24488382 45.86969957 3.26171875 45.86328125 C5.18177734 45.86521484 5.18177734 45.86521484 7.140625 45.8671875 C8.89681152 45.86887939 8.89681152 45.86887939 10.68847656 45.87060547 C13.87665407 45.99518038 16.86945973 46.401357 20 47 C16.6834474 38.08670596 13.07066748 29.35825575 9.1784668 20.68408203 C8.29597957 18.71310266 7.42428423 16.73755501 6.55273438 14.76171875 C5.99022549 13.50231715 5.42709882 12.24319126 4.86328125 10.984375 C4.36094971 9.85741211 3.85861816 8.73044922 3.34106445 7.56933594 C2.25960498 4.88564182 2.25960498 4.88564182 0 4 Z " fill="#FBCF54" transform="translate(291,155)"/>
<path d="M0 0 C0.66 0 1.32 0 2 0 C5.3284547 6.17121215 6.50717296 10.09212392 5 17 C2.69 17.66 0.38 18.32 -2 19 C-5.02114804 13.80362538 -5.02114804 13.80362538 -4.9375 10.625 C-3.61235595 6.91459667 -1.85249708 3.47235499 0 0 Z M-1 21 C-1 39.48 -1 57.96 -1 77 C-4 74 -4 74 -4.36076355 71.81697083 C-4.35410172 70.97091782 -4.34743988 70.12486481 -4.34057617 69.25317383 C-4.34023628 67.81201958 -4.34023628 67.81201958 -4.33988953 66.3417511 C-4.32440567 65.30729355 -4.30892181 64.272836 -4.29296875 63.20703125 C-4.28872391 62.14586594 -4.28447906 61.08470062 -4.28010559 59.99137878 C-4.26329706 56.59816235 -4.22564019 53.20553728 -4.1875 49.8125 C-4.172456 47.51368044 -4.15876711 45.21485159 -4.14648438 42.91601562 C-4.11338645 37.27714158 -4.0631653 31.63861303 -4 26 C-4.6297876 26.14622803 -5.2595752 26.29245605 -5.90844727 26.44311523 C-8.79244074 27.11093443 -11.67745251 27.77424969 -14.5625 28.4375 C-15.55314453 28.66759766 -16.54378906 28.89769531 -17.56445312 29.13476562 C-38.46791849 33.92658991 -38.46791849 33.92658991 -45.4375 30.125 C-48 28 -48 28 -50 26 C-49.625 23.875 -49.625 23.875 -49 22 C-46.48935405 22.44832963 -45.14602438 22.87411692 -43.1875 24.5625 C-40.0113305 26.6496971 -37.75875138 26.27069197 -34 26 C-30.48851746 24.76621339 -30.48851746 24.76621339 -27.0625 23.0625 C-19.03108363 19.40685729 -9.43862322 16.78068839 -1 21 Z " fill="#F9B842" transform="translate(249,123)"/>
<path d="M0 0 C2.206875 -0.061875 4.41375 -0.12375 6.6875 -0.1875 C8.54955078 -0.23970703 8.54955078 -0.23970703 10.44921875 -0.29296875 C14.2457708 0.02027812 16.01467371 0.69242347 19 3 C21.8199641 7.22994616 21.79231188 11.03220448 21 16 C18.47323961 19.34625024 16.96066458 20.67977847 13 22 C8.33032246 22.13590447 3.67262015 22.04286807 -1 22 C-0.67 14.74 -0.34 7.48 0 0 Z " fill="#0A0A0A" transform="translate(161,356)"/>
<path d="M0 0 C0.99 0.66 1.98 1.32 3 2 C2.67 3.32 2.34 4.64 2 6 C1.67 4.68 1.34 3.36 1 2 C-0.98 2 -2.96 2 -5 2 C-5.38058069 5.330081 -5.18480641 6.71936804 -3.3125 9.5625 C-1.02357697 11.97514859 1.34190586 14.00642939 4 16 C4 14.02 4 12.04 4 10 C5.32 10 6.64 10 8 10 C7.93039063 10.90492188 7.93039063 10.90492188 7.859375 11.828125 C7.82328125 12.62734375 7.7871875 13.4265625 7.75 14.25 C7.68039063 15.43335938 7.68039063 15.43335938 7.609375 16.640625 C8.13285068 19.80241809 9.61862776 20.95614508 12 23 C8.60462148 23.14575327 5.21005098 23.23421542 1.8125 23.3125 C0.85279297 23.35439453 -0.10691406 23.39628906 -1.09570312 23.43945312 C-8.22740156 23.56283891 -8.22740156 23.56283891 -12.1796875 20.68359375 C-14 18 -14 18 -13.9375 14.75 C-13 12 -13 12 -11 11 C-10.77216801 8.98205951 -10.54490478 6.96404698 -10.32421875 4.9453125 C-10 3 -10 3 -8.875 1 C-5.88165114 -0.59645273 -3.31875273 -0.29631721 0 0 Z " fill="#121212" transform="translate(225,355)"/>
<path d="M0 0 C2.64843301 2.64843301 3.59872497 3.8941626 5.0078125 7.16015625 C5.35457031 7.95357422 5.70132812 8.74699219 6.05859375 9.56445312 C6.41050781 10.38880859 6.76242187 11.21316406 7.125 12.0625 C7.83576359 13.69929428 8.54669319 15.33601649 9.2578125 16.97265625 C9.5686377 17.69718994 9.87946289 18.42172363 10.19970703 19.16821289 C10.76468685 20.46139275 11.36888727 21.73777455 12 23 C9.36 23 6.72 23 4 23 C4 21.02 4 19.04 4 17 C1.03 17 -1.94 17 -5 17 C-5.33 18.98 -5.66 20.96 -6 23 C-15.36077781 24.21876312 -15.36077781 24.21876312 -19.25390625 21.32421875 C-21.89180951 18.31183235 -23.7277647 15.8167059 -25 12 C-23.34765625 9.30078125 -23.34765625 9.30078125 -21.0625 6.3125 C-20.31097656 5.31863281 -19.55945313 4.32476562 -18.78515625 3.30078125 C-18.19605469 2.54152344 -17.60695313 1.78226562 -17 1 C-16.01 1.33 -15.02 1.66 -14 2 C-15.98 4.31 -17.96 6.62 -20 9 C-18.47788718 12.04422564 -17.04185496 14.53027563 -15.0625 17.25 C-14.55847656 17.95640625 -14.05445313 18.6628125 -13.53515625 19.390625 C-13.02855469 19.92171875 -12.52195312 20.4528125 -12 21 C-11.01 21 -10.02 21 -9 21 C-6.03 14.07 -3.06 7.14 0 0 Z " fill="#111111" transform="translate(323,355)"/>
<path d="M0 0 C3.0625 2.0625 3.0625 2.0625 5 5 C5.77533825 9.34189423 5.50177019 11.21389337 3.125 14.9375 C-1.25436463 17.82788066 -4.89387465 17.89550934 -10 17 C-12.625 15.5625 -12.625 15.5625 -14 13 C-14.59251489 9.86484842 -14.64323845 7.13004426 -14 4 C-10.42953237 -0.72223138 -5.53096775 -1.1401995 0 0 Z " fill="#161616" transform="translate(228,307)"/>
<path d="M0 0 C3.09738942 3.09738942 4.76255845 4.95682084 6.75 8.625 C7.17796875 9.40101563 7.6059375 10.17703125 8.046875 10.9765625 C9 13 9 13 9 15 C9.66 15 10.32 15 11 15 C11.26554688 14.28457031 11.53109375 13.56914062 11.8046875 12.83203125 C13.02914099 9.93095681 14.47983063 7.36984136 16.125 4.6875 C16.66382813 3.80449219 17.20265625 2.92148437 17.7578125 2.01171875 C18.16773438 1.34785156 18.57765625 0.68398438 19 0 C20.52543191 2.78652906 21.35914769 5.1945762 21.8515625 8.328125 C21.98046875 9.12734375 22.109375 9.9265625 22.2421875 10.75 C22.36851562 11.575 22.49484375 12.4 22.625 13.25 C22.7590625 14.09046875 22.893125 14.9309375 23.03125 15.796875 C23.36005591 17.86365501 23.68081969 19.93171161 24 22 C21.69 22 19.38 22 17 22 C16.67 18.04 16.34 14.08 16 10 C13.69 13.96 11.38 17.92 9 22 C5.7450185 17.93127312 3.46036234 14.48137427 1 10 C0.67 13.96 0.34 17.92 0 22 C-1.32 21.67 -2.64 21.34 -4 21 C-2.68 14.07 -1.36 7.14 0 0 Z " fill="#101010" transform="translate(132,356)"/>
<path d="M0 0 C5.77802286 4.33351714 10.1446435 7.94233698 15 13 C15.33 8.71 15.66 4.42 16 0 C17.65 0 19.3 0 21 0 C21 7.26 21 14.52 21 22 C15.22197714 17.66648286 10.8553565 14.05766302 6 9 C6 13.29 6 17.58 6 22 C3.69 22 1.38 22 -1 22 C-0.67 14.74 -0.34 7.48 0 0 Z " fill="#161616" transform="translate(339,356)"/>
<path d="M0 0 C0.99 0 1.98 0 3 0 C8.66107099 12.22667915 14.26941017 24.47591101 19.6875 36.8125 C20.3379126 38.27828491 20.3379126 38.27828491 21.00146484 39.77368164 C21.39672363 40.67981201 21.79198242 41.58594238 22.19921875 42.51953125 C22.54815186 43.31464111 22.89708496 44.10975098 23.2565918 44.92895508 C24 47 24 47 24 50 C21 49 21 49 19.77661133 46.78540039 C19.18529419 45.33121704 19.18529419 45.33121704 18.58203125 43.84765625 C18.13577393 42.7685498 17.6895166 41.68944336 17.22973633 40.57763672 C16.52820435 38.83764404 16.52820435 38.83764404 15.8125 37.0625 C14.83468029 34.69085046 13.85550494 32.3197594 12.875 29.94921875 C12.14990234 28.18650635 12.14990234 28.18650635 11.41015625 26.38818359 C9.45198843 21.68329215 7.39848699 17.02436164 5.3125 12.375 C4.97387939 11.61840088 4.63525879 10.86180176 4.28637695 10.08227539 C3.52638775 8.38722408 2.7635784 6.69343749 2 5 C-2.78813368 14.25919362 -6.94767457 23.70944844 -10.97631836 33.3190918 C-11.74553636 35.15018842 -12.51919971 36.97941561 -13.29296875 38.80859375 C-13.7418042 39.87907959 -14.19063965 40.94956543 -14.65307617 42.05249023 C-15.92891394 44.84444046 -17.36553939 47.40483277 -19 50 C-20.13151382 46.6839709 -19.9164964 45.03531267 -18.49291992 41.86157227 C-18.13892624 41.05716202 -17.78493256 40.25275177 -17.42021179 39.42396545 C-17.02759659 38.56347092 -16.63498138 37.70297638 -16.23046875 36.81640625 C-15.63616814 35.47762672 -15.63616814 35.47762672 -15.02986145 34.11180115 C-13.75984797 31.25708154 -12.4740771 28.40978762 -11.1875 25.5625 C-10.33160554 23.64826753 -9.47677505 21.73355897 -8.62304688 19.81835938 C-7.41808942 17.11546638 -6.21163057 14.41337456 -4.99662781 11.71498108 C-3.25171724 7.83790433 -1.53029026 3.96844832 0 0 Z " fill="#C79A4F" transform="translate(206,155)"/>
<path d="M0 0 C0.66 0 1.32 0 2 0 C6.93688416 10.17206947 11.58522015 20.4658532 16.10635376 30.82830811 C16.70211975 32.19277355 17.29975679 33.55642357 17.89926147 34.91925049 C18.75104071 36.85780286 19.59530911 38.79945367 20.4375 40.7421875 C20.93121094 41.8751123 21.42492187 43.00803711 21.93359375 44.17529297 C23 47 23 47 23 50 C22.01 49.67 21.02 49.34 20 49 C18.8814279 46.713003 17.95521069 44.50089085 17.0625 42.125 C13.79140831 33.79108518 10.21715943 25.60809861 6.5625 17.4375 C6.01240443 16.20526175 5.46235471 14.97300303 4.91235352 13.74072266 C3.61019716 10.82626412 2.30614676 7.91267187 1 5 C-2.34535808 11.45192446 -5.47729464 17.94442765 -8.32421875 24.62890625 C-8.60049103 25.27717377 -8.87676331 25.92544128 -9.16140747 26.59335327 C-10.29621839 29.26505983 -11.42579493 31.93890183 -12.54907227 34.61547852 C-13.3845027 36.60185147 -14.22876771 38.58428188 -15.07421875 40.56640625 C-15.56494873 41.73115479 -16.05567871 42.89590332 -16.5612793 44.09594727 C-17.83111449 46.65910519 -18.83062116 48.19171517 -21 50 C-20.41103985 45.23821389 -18.99473104 41.18425627 -17.05078125 36.8359375 C-16.75568161 36.16261383 -16.46058197 35.48929016 -16.15653992 34.79556274 C-15.53181946 33.37384324 -14.90380963 31.95356509 -14.27270508 30.53466797 C-13.32595194 28.40525576 -12.38963462 26.2715075 -11.45507812 24.13671875 C-7.8621337 15.96876556 -4.08663147 7.93504154 0 0 Z " fill="#C79A4E" transform="translate(291,155)"/>
<path d="M0 0 C12.46237288 -0.37016949 12.46237288 -0.37016949 14.90625 1.3125 C16.54401207 3.8393329 16.1953866 6.06920094 16 9 C14.02 9.99 14.02 9.99 12 11 C12.5775 11.71027344 13.155 12.42054688 13.75 13.15234375 C14.4925 14.07144531 15.235 14.99054688 16 15.9375 C17.11375 17.31228516 17.11375 17.31228516 18.25 18.71484375 C20 21 20 21 20 22 C16.57363451 22.31148777 14.66469271 22.47478051 11.8125 20.4375 C9.56337014 17.41280812 8.35224598 14.51583956 7 11 C7.99 10.34 8.98 9.68 10 9 C10.2502157 5.91634129 10.2502157 5.91634129 10 3 C7.525 2.01 7.525 2.01 5 1 C5.33 7.93 5.66 14.86 6 22 C3.69 22 1.38 22 -1 22 C-0.67 14.74 -0.34 7.48 0 0 Z " fill="#101010" transform="translate(248,356)"/>
<path d="M0 0 C0.33 1.65 0.66 3.3 1 5 C0.195625 5.474375 -0.60875 5.94875 -1.4375 6.4375 C-3.84753488 7.76900154 -3.84753488 7.76900154 -5 9 C-2.03 9.495 -2.03 9.495 1 10 C1.226875 9.2575 1.45375 8.515 1.6875 7.75 C3.26823621 4.43798128 4.95506421 3.00520162 8 1 C8.99 1 9.98 1 11 1 C11.33 2.65 11.66 4.3 12 6 C7.25 9 7.25 9 5 9 C5 9.99 5 10.98 5 12 C7.31 12.66 9.62 13.32 12 14 C11.67 15.98 11.34 17.96 11 20 C6.06789169 18.76697292 3.78225429 17.28039122 1 13 C1 12.34 1 11.68 1 11 C-0.98 11.33 -2.96 11.66 -5 12 C-4.360625 12.5775 -3.72125 13.155 -3.0625 13.75 C-1.01776132 15.98062401 -0.41794801 17.07436391 0 20 C-3.95673443 19.77390089 -4.93729488 19.06853815 -7.6875 16.0625 C-8.450625 15.051875 -9.21375 14.04125 -10 13 C-10.66 12.34 -11.32 11.68 -12 11 C-10.54708698 6.55579547 -9.56818768 3.94625102 -5.4375 1.5625 C-2 0 -2 0 0 0 Z " fill="#1E1E1E" transform="translate(274,270)"/>
<path d="M0 0 C2 2 2 2 2.3125 5.5 C2.209375 6.655 2.10625 7.81 2 9 C-1.10085571 11.06723714 -1.72931681 11.24497423 -5.23046875 11.1953125 C-6.43413086 11.18564453 -6.43413086 11.18564453 -7.66210938 11.17578125 C-8.49548828 11.15902344 -9.32886719 11.14226562 -10.1875 11.125 C-11.03248047 11.11597656 -11.87746094 11.10695313 -12.74804688 11.09765625 C-14.83215243 11.07410703 -16.91611217 11.03823647 -19 11 C-19 7.37 -19 3.74 -19 0 C-12.6258888 -0.80798593 -6.3211163 -1.56665598 0 0 Z " fill="#D4D4D4" transform="translate(284,417)"/>
<path d="M0 0 C4.35821846 1.18860503 7.35305396 2.23319217 10 6 C10.55982508 9.35895051 10.70968851 11.69696536 9.046875 14.75 C7.01390883 17.42630989 5.40611085 18.8736544 2.1875 19.875 C1.465625 19.91625 0.74375 19.9575 0 20 C0.33 18.68 0.66 17.36 1 16 C0.34 15.67 -0.32 15.34 -1 15 C0.98 14.01 2.96 13.02 5 12 C2.69 11.67 0.38 11.34 -2 11 C-2.0825 11.763125 -2.165 12.52625 -2.25 13.3125 C-3.16543933 16.59282427 -4.08471245 17.3341214 -7 19 C-9.25 19.6875 -9.25 19.6875 -11 20 C-11.33 18.02 -11.66 16.04 -12 14 C-10.865625 13.525625 -9.73125 13.05125 -8.5625 12.5625 C-5.24259834 11.36377917 -5.24259834 11.36377917 -4 10 C-6.64 8.68 -9.28 7.36 -12 6 C-11.67 4.35 -11.34 2.7 -11 1 C-7.85669777 1.3492558 -6.20508548 1.83925733 -3.6875 3.8125 C-2 6 -2 6 -2 10 C1.465 9.505 1.465 9.505 5 9 C3.06745228 6.9754262 1.36841312 5.57894208 -1 4 C-0.67 2.68 -0.34 1.36 0 0 Z " fill="#2E2E2E" transform="translate(226,270)"/>
<path d="M0 0 C0.74378906 0.16242188 1.48757813 0.32484375 2.25390625 0.4921875 C7.48955533 1.20192095 12.6604462 1.14420092 17.9375 1.125 C18.99646484 1.12886719 20.05542969 1.13273438 21.14648438 1.13671875 C26.53820621 1.12999171 31.68976338 0.9517636 37 0 C34.125 6.875 34.125 6.875 33 8 C30.85441173 8.08775605 28.70595579 8.10695219 26.55859375 8.09765625 C25.25341797 8.09443359 23.94824219 8.09121094 22.60351562 8.08789062 C21.2148431 8.07953401 19.82617123 8.07106905 18.4375 8.0625 C17.04492344 8.05748666 15.65234519 8.05292347 14.25976562 8.04882812 C10.8398013 8.03699434 7.41992156 8.0205088 4 8 C2.66666667 5.33333333 1.33333333 2.66666667 0 0 Z " fill="#CB9C4C" transform="translate(273,206)"/>
<path d="M0 0 C6 0 6 0 8.875 1.9375 C11.72210581 6.0406819 11.82678673 9.14482684 11 14 C8.91891892 18.54054054 8.91891892 18.54054054 6 20 C4.02 20 2.04 20 0 20 C0 13.4 0 6.8 0 0 Z " fill="#F8F8F8" transform="translate(166,357)"/>
<path d="M0 0 C3.48283261 0.79843594 5.00535734 2.59169815 6.9765625 5.453125 C7.05553662 8.6910639 6.21435496 10.10119217 4.4140625 12.765625 C1.57624088 14.73027074 -0.6052015 15.08671228 -4.046875 14.90625 C-7.52970761 14.10781406 -9.05223234 12.31455185 -11.0234375 9.453125 C-11.10241162 6.2151861 -10.26122996 4.80505783 -8.4609375 2.140625 C-5.62311588 0.17597926 -3.4416735 -0.18046228 0 0 Z " fill="#C2903C" transform="translate(252.0234375,204.546875)"/>
<path d="M0 0 C-1.50848402 3.17820742 -2.32549094 4.83056552 -5 7 C-9.57467234 7.95820321 -14.0351612 7.7491754 -18.6875 7.5625 C-20.56018555 7.54026367 -20.56018555 7.54026367 -22.47070312 7.51757812 C-31.6770271 7.3229729 -31.6770271 7.3229729 -34 5 C-34.625 2.375 -34.625 2.375 -35 0 C-33.76697144 0.00785522 -33.76697144 0.00785522 -32.5090332 0.01586914 C-28.77686327 0.03668393 -25.04470558 0.04967455 -21.3125 0.0625 C-20.01892578 0.07087891 -18.72535156 0.07925781 -17.39257812 0.08789062 C-16.14541016 0.09111328 -14.89824219 0.09433594 -13.61328125 0.09765625 C-11.89298706 0.10551147 -11.89298706 0.10551147 -10.13793945 0.11352539 C-7.03880308 0.08741955 -7.03880308 0.08741955 -4.21166992 -0.56860352 C-2 -1 -2 -1 0 0 Z " fill="#CA9B4A" transform="translate(226,207)"/>
<path d="M0 0 C0.99 0.33 1.98 0.66 3 1 C2.59007812 1.85722656 2.18015625 2.71445313 1.7578125 3.59765625 C-7.32857278 22.87905276 -8.6750248 43.3761294 -3 64 C-2.60174257 65.6244076 -2.20549272 67.24931069 -1.8125 68.875 C-1.544375 69.90625 -1.27625 70.9375 -1 72 C-1.99 72.495 -1.99 72.495 -3 73 C-3.63691996 71.54683309 -4.25869795 70.0870304 -4.875 68.625 C-5.22304687 67.81289062 -5.57109375 67.00078125 -5.9296875 66.1640625 C-8.9564483 57.21633896 -9.33777851 48.51849367 -9.3125 39.125 C-9.32861328 37.93519531 -9.34472656 36.74539062 -9.36132812 35.51953125 C-9.36716523 24.83763303 -7.51071098 15.35523134 -2.8125 5.75 C-2.28269531 4.65171875 -1.75289062 3.5534375 -1.20703125 2.421875 C-0.80871094 1.62265625 -0.41039062 0.8234375 0 0 Z " fill="#212121" transform="translate(175,141)"/>
<path d="M0 0 C4.62 0 9.24 0 14 0 C13.67 0.66 13.34 1.32 13 2 C10.69 1.67 8.38 1.34 6 1 C6 3.97 6 6.94 6 10 C8.31 9.34 10.62 8.68 13 8 C13 9.65 13 11.3 13 13 C10.69 12.67 8.38 12.34 6 12 C6 14.64 6 17.28 6 20 C11.3086849 19.41825155 11.3086849 19.41825155 16 17 C15.67 18.65 15.34 20.3 15 22 C10.05 22 5.1 22 0 22 C0 14.74 0 7.48 0 0 Z " fill="#181818" transform="translate(271,356)"/>
<path d="M0 0 C0 1.65 0 3.3 0 5 C-0.66 4.34 -1.32 3.68 -2 3 C-5.08347826 2.83318891 -5.08347826 2.83318891 -8 3 C-8.33 4.32 -8.66 5.64 -9 7 C-8.29875 7.226875 -7.5975 7.45375 -6.875 7.6875 C-3.07445395 9.42253189 -0.87839834 10.91600178 2 14 C2.0625 17.6875 2.0625 17.6875 1 21 C-2.27127586 23.18085057 -3.27376723 23.24887859 -7.0625 23.1875 C-7.94035156 23.18105469 -8.81820312 23.17460937 -9.72265625 23.16796875 C-12 23 -12 23 -14 22 C-13.67 20.02 -13.34 18.04 -13 16 C-12.690625 16.639375 -12.38125 17.27875 -12.0625 17.9375 C-11.1654837 19.93610821 -11.1654837 19.93610821 -10 21 C-8.00041636 21.04080783 -5.99954746 21.04254356 -4 21 C-3.67 19.68 -3.34 18.36 -3 17 C-3.63808594 16.50628906 -4.27617187 16.01257813 -4.93359375 15.50390625 C-5.75988281 14.86324219 -6.58617187 14.22257812 -7.4375 13.5625 C-8.26121094 12.92441406 -9.08492187 12.28632813 -9.93359375 11.62890625 C-12 10 -12 10 -13 9 C-13.57119205 3.74503311 -13.57119205 3.74503311 -11.5625 1.125 C-7.74855449 -0.5494151 -4.10420515 -0.23678107 0 0 Z " fill="#161616" transform="translate(199,355)"/>
<path d="M0 0 C2.05137315 3.48216283 2.56818592 6.77275657 3.125 10.75 C3.29257812 11.92046875 3.46015625 13.0909375 3.6328125 14.296875 C3.75398438 15.18890625 3.87515625 16.0809375 4 17 C2.35 17 0.7 17 -1 17 C-1.66 14.36 -2.32 11.72 -3 9 C-4.65 11.64 -6.3 14.28 -8 17 C-10.12038635 14.38485683 -12.13091744 11.80362384 -14 9 C-14.33 11.64 -14.66 14.28 -15 17 C-15.99 16.67 -16.98 16.34 -18 16 C-17.71617054 14.24871182 -17.42260471 12.49899997 -17.125 10.75 C-16.96257812 9.77546875 -16.80015625 8.8009375 -16.6328125 7.796875 C-16.05144152 5.22735883 -15.29159735 3.27928944 -14 1 C-12.99421411 2.28716647 -11.99553202 3.57988658 -11 4.875 C-10.443125 5.59429687 -9.88625 6.31359375 -9.3125 7.0546875 C-8 9 -8 9 -8 11 C-7.34 11 -6.68 11 -6 11 C-5.7525 10.29875 -5.505 9.5975 -5.25 8.875 C-3.83911974 5.62997541 -2.02104602 2.89683263 0 0 Z " fill="#191919" transform="translate(358,307)"/>
<path d="M0 0 C1.32 0.33 2.64 0.66 4 1 C2.35 2.65 0.7 4.3 -1 6 C0.50098594 9.11743233 2.02431822 12.15501823 4 15 C4.99 15 5.98 15 7 15 C10.465 7.575 10.465 7.575 14 0 C17.14371942 3.14371942 18.38179794 5.60341171 20.1875 9.625 C20.71730469 10.79289062 21.24710938 11.96078125 21.79296875 13.1640625 C23 16 23 16 23 17 C21.02 17 19.04 17 17 17 C15.515 12.545 15.515 12.545 14 8 C11.49701566 10.93828597 10.53069061 13.17902761 10 17 C2.04046243 17.78034682 2.04046243 17.78034682 -2 14.75 C-5.07865169 10.51685393 -5.07865169 10.51685393 -5 8 C-3.125 5.4375 -3.125 5.4375 -1 3 C-0.67 2.01 -0.34 1.02 0 0 Z " fill="#202020" transform="translate(150,307)"/>
<path d="M0 0 C8.57142857 6.28571429 8.57142857 6.28571429 12 10 C12 6.7 12 3.4 12 0 C13.98 0 15.96 0 18 0 C17.67 5.61 17.34 11.22 17 17 C8.42857143 10.71428571 8.42857143 10.71428571 5 7 C5 10.3 5 13.6 5 17 C3.35 17 1.7 17 0 17 C0 11.39 0 5.78 0 0 Z " fill="#181818" transform="translate(176,307)"/>
<path d="M0 0 C1.98 0 3.96 0 6 0 C5.67 2.64 5.34 5.28 5 8 C7.64 8 10.28 8 13 8 C12.67 5.36 12.34 2.72 12 0 C13.98 0 15.96 0 18 0 C17.67 5.61 17.34 11.22 17 17 C15.35 17 13.7 17 12 17 C12.33 14.36 12.66 11.72 13 9 C10.36 9 7.72 9 5 9 C5.33 11.64 5.66 14.28 6 17 C4.02 17 2.04 17 0 17 C0 11.39 0 5.78 0 0 Z " fill="#161616" transform="translate(261,307)"/>
<path d="M0 0 C10.625 -0.25 10.625 -0.25 14 2 C14.47730962 5.72301503 14.1387261 6.79191085 12 10 C14.475 13.465 14.475 13.465 17 17 C14.75 17.3125 14.75 17.3125 12 17 C9.24384275 14.24384275 7.57555876 11.88502164 7 8 C7.66 7.67 8.32 7.34 9 7 C8.67 5.35 8.34 3.7 8 2 C7.01 1.67 6.02 1.34 5 1 C5.33 6.28 5.66 11.56 6 17 C4.02 17 2.04 17 0 17 C0 11.39 0 5.78 0 0 Z " fill="#262626" transform="translate(236,307)"/>
<path d="M0 0 C4.7329203 0.34421239 8.33398155 1.00077127 12.625 3.0625 C16.31255897 4.78630753 18.87205996 5.71790262 23 5 C25.4413862 3.80505992 27.67921972 2.42817248 30 1 C30.66 1 31.32 1 32 1 C32.3125 3.25 32.3125 3.25 32 6 C29.03706718 8.96293282 26.07186057 11.00465631 22 12 C18.60157237 12 15.29311328 11.86844934 12 11 C11.34 10.01 10.68 9.02 10 8 C11.32 8 12.64 8 14 8 C14 7.34 14 6.68 14 6 C13.175 5.896875 12.35 5.79375 11.5 5.6875 C7.40710988 4.88353944 3.87459775 3.53647842 0 2 C0 1.34 0 0.68 0 0 Z " fill="#F6BD56" transform="translate(268,144)"/>
<path d="M0 0 C2.79947917 0.06510417 5.59895833 0.13020833 8.3984375 0.1953125 C8.3984375 3.8253125 8.3984375 7.4553125 8.3984375 11.1953125 C9.7184375 10.8653125 11.0384375 10.5353125 12.3984375 10.1953125 C12.7284375 7.2253125 13.0584375 4.2553125 13.3984375 1.1953125 C14.0584375 1.1953125 14.7184375 1.1953125 15.3984375 1.1953125 C15.45243486 2.65324134 15.49122927 4.11173962 15.5234375 5.5703125 C15.54664063 6.38242187 15.56984375 7.19453125 15.59375 8.03125 C15.3984375 10.1953125 15.3984375 10.1953125 13.3984375 12.1953125 C8.10266285 12.75869278 8.10266285 12.75869278 5.5234375 10.6953125 C5.1521875 10.2003125 4.7809375 9.7053125 4.3984375 9.1953125 C4.0271875 9.6903125 3.6559375 10.1853125 3.2734375 10.6953125 C0.65149357 12.79286764 -1.33998722 12.41275085 -4.6015625 12.1953125 C-4.2715625 11.5353125 -3.9415625 10.8753125 -3.6015625 10.1953125 C-1.6215625 10.6903125 -1.6215625 10.6903125 0.3984375 11.1953125 C0.3984375 10.2053125 0.3984375 9.2153125 0.3984375 8.1953125 C-0.2409375 7.9478125 -0.8803125 7.7003125 -1.5390625 7.4453125 C-3.6015625 6.1953125 -3.6015625 6.1953125 -4.4765625 4.1953125 C-4.5178125 3.5353125 -4.5590625 2.8753125 -4.6015625 2.1953125 C-2.6015625 0.1953125 -2.6015625 0.1953125 0 0 Z " fill="#959595" transform="translate(251.6015625,393.8046875)"/>
<path d="M0 0 C2.9375 0.875 2.9375 0.875 4.9375 3.875 C5.26831508 7.51396583 5.36338928 10.00080621 3.75 13.3125 C1.9375 14.875 1.9375 14.875 -0.5625 15.3125 C-3.51903032 14.79510719 -4.24257396 14.20970512 -6.0625 11.875 C-6.4609375 9.71875 -6.4609375 9.71875 -6.4375 7.375 C-6.44523438 6.6015625 -6.45296875 5.828125 -6.4609375 5.03125 C-5.71194667 0.97788787 -4.02245497 -0.16418184 0 0 Z " fill="#F7F7F7" transform="translate(224.0625,308.125)"/>
<path d="M0 0 C0.66 0 1.32 0 2 0 C5.31516204 6.14656653 6.59729554 10.1193423 5 17 C4 18 4 18 1.125 18.375 C-2 18 -2 18 -3.9375 15.8125 C-5.20928156 12.44601939 -5.17846824 11.37827562 -4 8 C-2.7457747 5.28925501 -1.40579125 2.63504127 0 0 Z " fill="#C79643" transform="translate(249,123)"/>
<path d="M0 0 C0 0.99 0 1.98 0 3 C0.99 3.33 1.98 3.66 3 4 C2.54625 4.37125 2.0925 4.7425 1.625 5.125 C-0.47029394 7.54264685 -1.12013285 9.95430602 -2 13 C-0.906875 13.103125 0.18625 13.20625 1.3125 13.3125 C5 14 5 14 6.9375 15.4375 C8 17 8 17 8 19 C3.22050561 19.19117978 -0.62325105 19.03569718 -5 17 C-6.96987642 14.58242439 -7.03354129 12.74125292 -7.4375 9.625 C-6.94411029 5.5369138 -4.95378372 0 0 0 Z " fill="#161616" transform="translate(258,273)"/>
<path d="M0 0 C3.37177797 1.39521847 5.25017709 2.76282761 7 6 C7.33185111 10.47999001 6.85818018 14.60182657 6 19 C5.44828125 18.82597656 4.8965625 18.65195312 4.328125 18.47265625 C1.63524347 17.92594708 -0.52647404 18.11497719 -3.25 18.4375 C-4.14203125 18.53933594 -5.0340625 18.64117187 -5.953125 18.74609375 C-6.96632812 18.87177734 -6.96632812 18.87177734 -8 19 C-6.125 15.125 -6.125 15.125 -5 14 C-2.67182036 13.63239269 -0.3381615 13.29758419 2 13 C1.54625 11.906875 1.0925 10.81375 0.625 9.6875 C0.36976563 9.07261719 0.11453125 8.45773437 -0.1484375 7.82421875 C-1.06806692 5.73466068 -1.06806692 5.73466068 -3 3 C-2.34 3 -1.68 3 -1 3 C-0.67 2.01 -0.34 1.02 0 0 Z " fill="#141414" transform="translate(242,273)"/>
<path d="M0 0 C2 2 2 2 2.3125 4.9375 C2 8 2 8 0.9375 9.875 C-2.06732099 11.61973477 -4.60810131 11.30835443 -8 11 C-10 9 -10 9 -10.375 5.5625 C-10 2 -10 2 -8.375 0 C-5.18820399 -1.34180884 -3.28890107 -0.92947204 0 0 Z " fill="#ECECEC" transform="translate(229,395)"/>
<path d="M0 0 C2.9375 0.75 2.9375 0.75 4.9375 2.75 C5.1875 6.25 5.1875 6.25 4.9375 9.75 C2.9375 11.75 2.9375 11.75 -0.5 12.0625 C-4.0625 11.75 -4.0625 11.75 -6.0625 10.6875 C-7.69628851 7.52203476 -6.91517564 5.09979714 -6.0625 1.75 C-3.0625 -0.25 -3.0625 -0.25 0 0 Z " fill="#ECECEC" transform="translate(323.0625,416.25)"/>
<path d="M0 0 C2.9375 0.75 2.9375 0.75 4.9375 2.75 C5.1875 6.25 5.1875 6.25 4.9375 9.75 C2.9375 11.75 2.9375 11.75 -0.5 12.0625 C-4.0625 11.75 -4.0625 11.75 -6.0625 10.6875 C-7.69628851 7.52203476 -6.91517564 5.09979714 -6.0625 1.75 C-3.0625 -0.25 -3.0625 -0.25 0 0 Z " fill="#ECECEC" transform="translate(151.0625,394.25)"/>
<path d="M0 0 C3.3 0 6.6 0 10 0 C10 0.33 10 0.66 10 1 C8.35 1 6.7 1 5 1 C5.33 7.93 5.66 14.86 6 22 C3.69 22 1.38 22 -1 22 C-0.67 14.74 -0.34 7.48 0 0 Z " fill="#0A0A0A" transform="translate(248,356)"/>
<path d="M0 0 C9.6402439 -0.56707317 9.6402439 -0.56707317 14 3 C16.82813113 7.24219669 16.77040656 11.0201555 16 16 C13.46685084 19.65071496 11.99478434 20.75599629 7.6875 21.8125 C6.800625 21.874375 5.91375 21.93625 5 22 C5.9590625 21.1028125 5.9590625 21.1028125 6.9375 20.1875 C10.36588102 16.55133832 10.3471086 12.92742129 10.27734375 8.16015625 C10.134536 5.81143278 10.134536 5.81143278 8.375 3.5 C5.56404634 1.72466085 3.28902165 1.29900197 0 1 C0 0.67 0 0.34 0 0 Z " fill="#101010" transform="translate(166,356)"/>
<path d="M0 0 C1.65 0 3.3 0 5 0 C5.33 7.26 5.66 14.52 6 22 C3.69 22 1.38 22 -1 22 C-0.67 14.74 -0.34 7.48 0 0 Z " fill="#0A0A0A" transform="translate(292,356)"/>
<path d="M0 0 C7.38804781 -0.36334661 7.38804781 -0.36334661 10 1.1875 C11.36703913 3.66525842 11.41826612 5.21155919 11 8 C10 9.8125 10 9.8125 8 11 C5.28125957 11.24667073 2.74116148 11.13481122 0 11 C0 7.37 0 3.74 0 0 Z " fill="#383838" transform="translate(120,395)"/>
<path d="M0 0 C0.33 1.65 0.66 3.3 1 5 C-0.11375 5.61875 -0.11375 5.61875 -1.25 6.25 C-3.90171685 7.93745618 -5.86674014 9.70872089 -8 12 C-7.236875 12.061875 -6.47375 12.12375 -5.6875 12.1875 C-3 13 -3 13 -1.1875 15.4375 C0 18 0 18 0 20 C-3.95673443 19.77390089 -4.93729488 19.06853815 -7.6875 16.0625 C-8.450625 15.051875 -9.21375 14.04125 -10 13 C-10.66 12.34 -11.32 11.68 -12 11 C-10.54708698 6.55579547 -9.56818768 3.94625102 -5.4375 1.5625 C-2 0 -2 0 0 0 Z " fill="#1C1C1C" transform="translate(274,270)"/>
<path d="M0 0 C1.98 0 3.96 0 6 0 C5.98839844 0.99902344 5.97679687 1.99804688 5.96484375 3.02734375 C5.95582031 4.31769531 5.94679688 5.60804688 5.9375 6.9375 C5.92589844 8.22527344 5.91429687 9.51304687 5.90234375 10.83984375 C5.63467451 13.86298403 5.63467451 13.86298403 7 15 C9.5 15.16666667 9.5 15.16666667 12 15 C13.36532549 13.86298403 13.36532549 13.86298403 13.09765625 10.83984375 C13.08605469 9.55207031 13.07445312 8.26429688 13.0625 6.9375 C13.05347656 5.64714844 13.04445313 4.35679687 13.03515625 3.02734375 C13.02355469 2.02832031 13.01195312 1.02929688 13 0 C14.32 0.33 15.64 0.66 17 1 C16.91291962 3.10494301 16.80474307 5.20902142 16.6875 7.3125 C16.62949219 8.48425781 16.57148438 9.65601563 16.51171875 10.86328125 C16 14 16 14 14.73828125 15.89453125 C12.52996023 17.29892417 11.10617809 17.40106178 8.5 17.375 C7.7265625 17.38273437 6.953125 17.39046875 6.15625 17.3984375 C4 17 4 17 2.26171875 15.92578125 C0.33920026 12.99141093 0.47149382 10.27856527 0.3125 6.8125 C0.24675781 5.54019531 0.18101562 4.26789063 0.11328125 2.95703125 C0.07589844 1.98121094 0.03851563 1.00539063 0 0 Z " fill="#151515" transform="translate(282,307)"/>
<path d="M0 0 C3.3 0 6.6 0 10 0 C10 3.3 10 6.6 10 10 C6.78548731 11.60725635 3.56387464 11.05748185 0 11 C0 7.37 0 3.74 0 0 Z " fill="#FFFFFF" transform="translate(265,417)"/>
<path d="M0 0 C4.35821846 1.18860503 7.35305396 2.23319217 10 6 C10.55982508 9.35895051 10.70968851 11.69696536 9.046875 14.75 C7.01390883 17.42630989 5.40611085 18.8736544 2.1875 19.875 C1.465625 19.91625 0.74375 19.9575 0 20 C0.33 18.68 0.66 17.36 1 16 C0.34 15.67 -0.32 15.34 -1 15 C4.625 12 4.625 12 8 12 C5.14723863 9.06799526 2.34920216 6.35684596 -1 4 C-0.67 2.68 -0.34 1.36 0 0 Z " fill="#131313" transform="translate(226,270)"/>
<path d="M0 0 C0.99 0 1.98 0 3 0 C6.97236784 15.14465241 5.92997287 31.2100814 1 46 C-0.485 46.495 -0.485 46.495 -2 47 C-1.87882812 46.45698242 -1.75765625 45.91396484 -1.6328125 45.35449219 C1.8697785 29.4379104 2.46099518 16.08436133 0 0 Z " fill="#303030" transform="translate(329,161)"/>
<path d="M0 0 C2.97 0 5.94 0 9 0 C9 3.63 9 7.26 9 11 C10.32 10.67 11.64 10.34 13 10 C13.33 7.03 13.66 4.06 14 1 C14.66 1 15.32 1 16 1 C16.05399736 2.45792884 16.09279177 3.91642712 16.125 5.375 C16.14820313 6.18710937 16.17140625 6.99921875 16.1953125 7.8359375 C16 10 16 10 14 12 C10.95639252 12.32378803 8.87078033 12.51045744 6.1875 10.9375 C4.44270397 8.09072753 4.30957852 5.28153235 4 2 C2.31318262 3.10041919 2.31318262 3.10041919 1 5 C1.07542341 8.11993606 1.07542341 8.11993606 2 11 C2.66 11.33 3.32 11.66 4 12 C1.625 11.6875 1.625 11.6875 -1 11 C-3 8 -3 8 -2.75 6.0625 C-2 4 -2 4 0 0 Z " fill="#797979" transform="translate(353,394)"/>
<path d="M0 0 C2.42494905 2.18762278 3.7177424 4.17002209 5.0078125 7.16015625 C5.35457031 7.95357422 5.70132812 8.74699219 6.05859375 9.56445312 C6.41050781 10.38880859 6.76242187 11.21316406 7.125 12.0625 C7.83576359 13.69929428 8.54669319 15.33601649 9.2578125 16.97265625 C9.72405029 18.05945679 9.72405029 18.05945679 10.19970703 19.16821289 C10.76468685 20.46139275 11.36888727 21.73777455 12 23 C9.36 23 6.72 23 4 23 C3.89042969 22.43152344 3.78085937 21.86304688 3.66796875 21.27734375 C2.86180166 17.35137556 2.0166887 14.0358498 0.3125 10.375 C-1.22380244 6.42450802 -0.91677327 4.08380821 0 0 Z " fill="#0D0D0D" transform="translate(323,355)"/>
<path d="M0 0 C1.65 0 3.3 0 5 0 C5.06058594 0.99902344 5.12117188 1.99804688 5.18359375 3.02734375 C5.26738281 4.31769531 5.35117187 5.60804688 5.4375 6.9375 C5.51871094 8.22527344 5.59992188 9.51304687 5.68359375 10.83984375 C5.64919188 13.86023957 5.64919188 13.86023957 7 15 C9.5 15.16666667 9.5 15.16666667 12 15 C13.36532549 13.86298403 13.36532549 13.86298403 13.09765625 10.83984375 C13.08605469 9.55207031 13.07445312 8.26429688 13.0625 6.9375 C13.05347656 5.64714844 13.04445313 4.35679687 13.03515625 3.02734375 C13.02355469 2.02832031 13.01195312 1.02929688 13 0 C13.99 0 14.98 0 16 0 C16.08126087 2.08268593 16.13930839 4.16628658 16.1875 6.25 C16.23970703 7.99023438 16.23970703 7.99023438 16.29296875 9.765625 C15.97540963 13.27147766 15.59330629 14.6471327 13 17 C10.84375 17.49609375 10.84375 17.49609375 8.5 17.4375 C7.7265625 17.43621094 6.953125 17.43492187 6.15625 17.43359375 C4 17 4 17 2.26171875 15.921875 C0.33723937 12.99046988 0.47141294 10.27680218 0.3125 6.8125 C0.24675781 5.54019531 0.18101562 4.26789063 0.11328125 2.95703125 C0.07589844 1.98121094 0.03851563 1.00539063 0 0 Z " fill="#1C1C1C" transform="translate(321,307)"/>
<path d="M0 0 C2.7870765 2.4709305 4.29962048 5.17595632 6.0625 8.4375 C12.45465324 19.50032888 20.06948129 27.62902003 30.3125 35.0390625 C33 37 33 37 35 39 C34.01 39.495 34.01 39.495 33 40 C29.63405923 37.71088937 26.3054548 35.37564351 23 33 C22.38253906 32.5565625 21.76507813 32.113125 21.12890625 31.65625 C12.17827085 24.61594206 4.45662729 13.39879702 0 3 C0 2.01 0 1.02 0 0 Z " fill="#161616" transform="translate(173,213)"/>
<path d="M0 0 C5.28 0 10.56 0 16 0 C15.67 0.99 15.34 1.98 15 3 C14.01 2.67 13.02 2.34 12 2 C12 5.3 12 8.6 12 12 C11.01 12 10.02 12 9 12 C9 8.7 9 5.4 9 2 C7.68 2.33 6.36 2.66 5 3 C4.67 5.97 4.34 8.94 4 12 C3.01 12 2.02 12 1 12 C0.67 8.04 0.34 4.08 0 0 Z " fill="#676767" transform="translate(196,416)"/>
<path d="M0 0 C0.33 1.32 0.66 2.64 1 4 C-0.98 5.32 -2.96 6.64 -5 8 C-2.94766315 10.2477975 -1.99332739 11.0022242 1 12 C0.67 13.65 0.34 15.3 0 17 C-3.38266921 16.7181109 -4.81072018 16.16935563 -7.375 13.875 C-9 11 -9 11 -9.0625 7.4375 C-7.55935364 2.57437942 -5.23952139 0 0 0 Z " fill="#242424" transform="translate(295,272)"/>
<path d="M0 0 C3.45835793 0.28819649 4.78380733 0.78965038 7.3125 3.25 C9.18717766 6.30503027 9.69897052 7.50514742 9 11 C7.02052923 14.22580421 5.91859961 15.72859557 2.25 16.8125 C1.5075 16.874375 0.765 16.93625 0 17 C-0.33 15.35 -0.66 13.7 -1 12 C0.98 11.01 2.96 10.02 5 9 C4.38125 8.38125 3.7625 7.7625 3.125 7.125 C1.75 5.75 0.375 4.375 -1 3 C-0.67 2.01 -0.34 1.02 0 0 Z " fill="#1D1D1D" transform="translate(205,272)"/>
<path d="M0 0 C8.78200897 3.74156232 13.03977255 13.54625998 16.9375 21.6875 C17.32703857 22.49501709 17.71657715 23.30253418 18.11791992 24.13452148 C20.27615909 28.81174713 21.56662756 32.86144103 22 38 C21.34 38 20.68 38 20 38 C19.64808594 36.98421875 19.29617188 35.9684375 18.93359375 34.921875 C14.77851587 23.21743027 10.00683413 12.60931731 1.28515625 3.5234375 C0 2 0 2 0 0 Z " fill="#171717" transform="translate(309,123)"/>
<path d="M0 0 C2.31 0 4.62 0 7 0 C9.46977731 6.39236479 9.46977731 6.39236479 8 10 C7 11 7 11 3.4375 11.0625 C2.303125 11.041875 1.16875 11.02125 0 11 C0 7.37 0 3.74 0 0 Z " fill="#343434" transform="translate(186,417)"/>
<path d="M0 0 C5.28 0 10.56 0 16 0 C15.67 0.66 15.34 1.32 15 2 C13.35 1.67 11.7 1.34 10 1 C10.33 6.28 10.66 11.56 11 17 C9.02 17 7.04 17 5 17 C5.33 11.72 5.66 6.44 6 1 C4.02 1.66 2.04 2.32 0 3 C0 2.01 0 1.02 0 0 Z " fill="#101010" transform="translate(196,307)"/>
<path d="M0 0 C3.81345617 0.77401833 7.18683982 2.33810044 10.75 3.875 C17.62258289 6.75644464 24.27904158 8.19190812 31.63671875 9.26171875 C34.93067874 9.98478314 36.55006919 10.74854459 39 13 C24.7586576 13.39427858 12.45662472 8.37149195 0 2 C0 1.34 0 0.68 0 0 Z " fill="#1F1F1F" transform="translate(207,252)"/>
<path d="M0 0 C2.48674167 0.44406101 3.91700788 0.93574804 5.9375 2.5 C8.29858218 4.21715068 10.13690678 4.60234816 13 5 C13 5.99 13 6.98 13 8 C13.99 8.66 14.98 9.32 16 10 C9.72191742 10.50224661 6.05364422 10.19082691 1 6 C0.34 5.34 -0.32 4.68 -1 4 C-0.625 1.875 -0.625 1.875 0 0 Z " fill="#F5BE58" transform="translate(200,145)"/>
<path d="M0 0 C0 0.66 0 1.32 0 2 C0.66 2.33 1.32 2.66 2 3 C-0.31 4.32 -2.62 5.64 -5 7 C-1.535 8.98 -1.535 8.98 2 11 C1.01 11.495 1.01 11.495 0 12 C0 12.99 0 13.98 0 15 C-3.79133356 14.45838092 -5.66109564 13.00716275 -8 10 C-8.5625 7.5625 -8.5625 7.5625 -8 5 C-3.88888889 0 -3.88888889 0 0 0 Z " fill="#212121" transform="translate(304,273)"/>
<path d="M0 0 C3.18969846 2.66287139 4.50636627 5.88084537 6.1875 9.625 C6.71730469 10.79289062 7.24710938 11.96078125 7.79296875 13.1640625 C9 16 9 16 9 17 C7.02 17 5.04 17 3 17 C2.70996094 16.04287109 2.70996094 16.04287109 2.4140625 15.06640625 C2.15367187 14.24011719 1.89328125 13.41382813 1.625 12.5625 C1.36976563 11.73878906 1.11453125 10.91507812 0.8515625 10.06640625 C0.19117773 7.82201984 0.19117773 7.82201984 -2 7 C-1.125 2.25 -1.125 2.25 0 0 Z " fill="#141414" transform="translate(164,307)"/>
<path d="M0 0 C3.23475448 1.61737724 4.70572021 2.47629223 7 5 C7.33 3.35 7.66 1.7 8 0 C8.99 0 9.98 0 11 0 C11 3.63 11 7.26 11 11 C8.69 9.02 6.38 7.04 4 5 C3.67 6.98 3.34 8.96 3 11 C2.01 11 1.02 11 0 11 C0 7.37 0 3.74 0 0 Z " fill="#494949" transform="translate(233,395)"/>
<path d="M0 0 C1.98 0 3.96 0 6 0 C6 5.61 6 11.22 6 17 C4.02 17 2.04 17 0 17 C0 11.39 0 5.78 0 0 Z " fill="#0E0E0E" transform="translate(302,307)"/>
<path d="M0 0 C1.98 0 3.96 0 6 0 C6 5.61 6 11.22 6 17 C4.02 17 2.04 17 0 17 C0 11.39 0 5.78 0 0 Z " fill="#0F0F0F" transform="translate(139,307)"/>
<path d="M0 0 C2.05137315 3.48216283 2.56818592 6.77275657 3.125 10.75 C3.29257812 11.92046875 3.46015625 13.0909375 3.6328125 14.296875 C3.75398438 15.18890625 3.87515625 16.0809375 4 17 C2.35 17 0.7 17 -1 17 C-1.66 14.36 -2.32 11.72 -3 9 C-3.99 9.495 -3.99 9.495 -5 10 C-3.66511872 6.40608886 -2.03977277 3.24509304 0 0 Z " fill="#131313" transform="translate(358,307)"/>
<path d="M0 0 C1.98 0 3.96 0 6 0 C5.67 5.61 5.34 11.22 5 17 C-0.46875 13.2890625 -0.46875 13.2890625 -2 12 C-2 11.34 -2 10.68 -2 10 C-1.34 10 -0.68 10 0 10 C0 6.7 0 3.4 0 0 Z " fill="#0F0F0F" transform="translate(188,307)"/>
<path d="M0 0 C0.66 0 1.32 0 2 0 C2 1.65 2 3.3 2 5 C3.65 5 5.3 5 7 5 C7 3.35 7 1.7 7 0 C7.99 0 8.98 0 10 0 C10 3.63 10 7.26 10 11 C9.01 11 8.02 11 7 11 C7 9.35 7 7.7 7 6 C5.68 6 4.36 6 3 6 C3 7.65 3 9.3 3 11 C2.01 11 1.02 11 0 11 C0 7.37 0 3.74 0 0 Z " fill="#292929" transform="translate(320,395)"/>
<path d="M0 0 C-0.49831724 3.68754757 -1.10067643 5.60490662 -4 8 C-2.02 8.99 -0.04 9.98 2 11 C1.67 12.32 1.34 13.64 1 15 C-1.94563014 14.6815535 -3.61076606 14.33733608 -5.875 12.375 C-7.52568093 8.89022914 -6.9991864 6.66368347 -6 3 C-3.92839358 0.92839358 -2.94846185 0 0 0 Z " fill="#222222" transform="translate(313,273)"/>
<path d="M0 0 C2.375 0.3125 2.375 0.3125 5 1 C7.48038907 4.7205836 7.46337203 6.59796571 7 11 C5.1875 13.4375 5.1875 13.4375 3 15 C2.01 15 1.02 15 0 15 C0 14.01 0 13.02 0 12 C-0.66 11.67 -1.32 11.34 -2 11 C0.31 9.68 2.62 8.36 5 7 C4.175 6.21625 3.35 5.4325 2.5 4.625 C0 2 0 2 0 0 Z " fill="#161616" transform="translate(196,273)"/>
<path d="M0 0 C0 3.63 0 7.26 0 11 C-4 11 -4 11 -5.8125 9.8125 C-7 8 -7 8 -6.875 5.5 C-5.47560744 1.50173555 -4.32575695 0 0 0 Z " fill="#CA923A" transform="translate(248,206)"/>
<path d="M0 0 C0.99 0.33 1.98 0.66 3 1 C2.319375 1.7425 1.63875 2.485 0.9375 3.25 C-1.25006782 5.70853105 -1.25006782 5.70853105 -0.78125 7.9375 C0.0693613 10.18311384 1.12378891 11.83171854 2.5625 13.75 C3.01753906 14.36359375 3.47257812 14.9771875 3.94140625 15.609375 C4.29074219 16.06828125 4.64007813 16.5271875 5 17 C2.875 17.4375 2.875 17.4375 0 17 C-2.276147 14.87310854 -4.1458722 12.4976567 -6 10 C-4.28564986 6.44774296 -2.22257977 3.25978366 0 0 Z " fill="#1E1E1E" transform="translate(314,307)"/>
<path d="M0 0 C3.28670403 3.28670403 5 7.35868331 5 12 C2.36 12 -0.28 12 -3 12 C-4.21386936 8.35839192 -3.6674695 7.66834531 -2.0625 4.3125 C-1.49208984 3.10013672 -1.49208984 3.10013672 -0.91015625 1.86328125 C-0.60980469 1.24839844 -0.30945313 0.63351562 0 0 Z " fill="#383838" transform="translate(321,360)"/>
<path d="M0 0 C3.65316671 1.24976756 4.78065836 1.67098753 7 5 C6.9375 8.5 6.9375 8.5 6 12 C3.4375 13.9375 3.4375 13.9375 1 15 C0.34 13.68 -0.32 12.36 -1 11 C0.65 9.68 2.3 8.36 4 7 C3.34 6.401875 2.68 5.80375 2 5.1875 C0 3 0 3 0 0 Z " fill="#151515" transform="translate(187,273)"/>
<path d="M0 0 C0 0.33 0 0.66 0 1 C-0.85980469 1.15855469 -1.71960938 1.31710938 -2.60546875 1.48046875 C-11.22856142 3.18251867 -18.88782959 5.59073237 -27 9 C-27.66 8.34 -28.32 7.68 -29 7 C-9.08791994 -1.89331665 -9.08791994 -1.89331665 0 0 Z " fill="#222222" transform="translate(239,99)"/>
<path d="M0 0 C0.66 0.33 1.32 0.66 2 1 C1.67 3.31 1.34 5.62 1 8 C2.65 8.33 4.3 8.66 6 9 C6.26932521 4.34947128 6.26932521 4.34947128 5 0 C8.875 0.875 8.875 0.875 10 2 C10.45232816 7.20177384 10.45232816 7.20177384 8.9375 9.875 C5.93267901 11.61973477 3.39189869 11.30835443 0 11 C-2 9 -2 9 -2.25 5.5 C-2 2 -2 2 0 0 Z " fill="#383838" transform="translate(221,395)"/>
<path d="M0 0 C2.31 0 4.62 0 7 0 C7.144375 0.7425 7.28875 1.485 7.4375 2.25 C8.32908664 6.75590086 8.32908664 6.75590086 10 11 C8.125 10.8125 8.125 10.8125 6 10 C4.4774569 7.31742407 3.87764008 5.75455283 4.375 2.6875 C4.684375 1.8521875 4.684375 1.8521875 5 1 C4.01 1 3.02 1 2 1 C2.33 4.3 2.66 7.6 3 11 C2.01 11 1.02 11 0 11 C0 7.37 0 3.74 0 0 Z " fill="#242424" transform="translate(331,417)"/>
<path d="M0 0 C2.31 0 4.62 0 7 0 C7.144375 0.7425 7.28875 1.485 7.4375 2.25 C8.32908664 6.75590086 8.32908664 6.75590086 10 11 C8.125 10.8125 8.125 10.8125 6 10 C4.4774569 7.31742407 3.87764008 5.75455283 4.375 2.6875 C4.684375 1.8521875 4.684375 1.8521875 5 1 C4.01 1 3.02 1 2 1 C2.33 4.3 2.66 7.6 3 11 C2.01 11 1.02 11 0 11 C0 7.37 0 3.74 0 0 Z " fill="#242424" transform="translate(224,417)"/>
<path d="M0 0 C2.31 0 4.62 0 7 0 C7.82638376 2.89234315 8 4.88742431 8 8 C8.33 8.99 8.66 9.98 9 11 C7.68 10.67 6.36 10.34 5 10 C4.15545644 6.62182575 3.89155081 4.32534757 5 1 C4.01 1 3.02 1 2 1 C2 4.3 2 7.6 2 11 C1.34 11 0.68 11 0 11 C0 7.37 0 3.74 0 0 Z " fill="#181818" transform="translate(175,417)"/>
<path d="M0 0 C0.66 0.33 1.32 0.66 2 1 C1.67 1.33 1.34 1.66 1 2 C0.95907063 4.33297433 0.95758277 6.66705225 1 9 C2.65 9.33 4.3 9.66 6 10 C6.0309375 8.081875 6.0309375 8.081875 6.0625 6.125 C6.07410156 5.40570313 6.08570313 4.68640625 6.09765625 3.9453125 C6.12649242 1.91814596 6.12649242 1.91814596 5 0 C6.32 0.66 7.64 1.32 9 2 C9.125 5.375 9.125 5.375 9 9 C7 11 7 11 3.5625 11.3125 C0 11 0 11 -2 9.9375 C-3.6154422 6.80758074 -2.79884015 4.31825907 -2 1 C-1.34 0.67 -0.68 0.34 0 0 Z " fill="#2C2C2C" transform="translate(319,417)"/>
<path d="M0 0 C0.66 0.33 1.32 0.66 2 1 C1.67 1.33 1.34 1.66 1 2 C0.95907063 4.33297433 0.95758277 6.66705225 1 9 C2.65 9.33 4.3 9.66 6 10 C6.0309375 8.081875 6.0309375 8.081875 6.0625 6.125 C6.07410156 5.40570313 6.08570313 4.68640625 6.09765625 3.9453125 C6.12649242 1.91814596 6.12649242 1.91814596 5 0 C6.32 0.66 7.64 1.32 9 2 C9.125 5.375 9.125 5.375 9 9 C7 11 7 11 3.5625 11.3125 C0 11 0 11 -2 9.9375 C-3.6154422 6.80758074 -2.79884015 4.31825907 -2 1 C-1.34 0.67 -0.68 0.34 0 0 Z " fill="#2C2C2C" transform="translate(147,395)"/>
<path d="M0 0 C2.31 1.98 4.62 3.96 7 6 C7.33 4.02 7.66 2.04 8 0 C8.66 0 9.32 0 10 0 C10 3.63 10 7.26 10 11 C7.69 9.02 5.38 7.04 3 5 C2.67 6.98 2.34 8.96 2 11 C1.34 11 0.68 11 0 11 C0 7.37 0 3.74 0 0 Z " fill="#111111" transform="translate(302,395)"/>
<path d="M0 0 C1.1055189 0.93590504 2.20935453 1.87379858 3.3125 2.8125 C3.92738281 3.33457031 4.54226562 3.85664063 5.17578125 4.39453125 C6.85424679 5.87172469 8.43882034 7.40039131 10 9 C9 10 9 10 6.1875 10.3125 C3 10 3 10 0.625 8.3125 C-1.28250465 5.59797415 -1.43903308 4.2488448 -1 1 C-0.67 0.67 -0.34 0.34 0 0 Z " fill="#E3E3E3" transform="translate(217,367)"/>
<path d="M0 0 C4.875 0.875 4.875 0.875 6 2 C6.375 4.875 6.375 4.875 6 8 C3.5 9.875 3.5 9.875 1 11 C-0.20272819 8.59454362 -0.10071472 7.05003047 -0.0625 4.375 C-0.05347656 3.55773437 -0.04445312 2.74046875 -0.03515625 1.8984375 C-0.02355469 1.27195312 -0.01195312 0.64546875 0 0 Z " fill="#F2F2F2" transform="translate(253,357)"/>
<path d="M0 0 C0.33 1.32 0.66 2.64 1 4 C-0.98 4.99 -2.96 5.98 -5 7 C-4.360625 7.598125 -3.72125 8.19625 -3.0625 8.8125 C-1 11 -1 11 0 14 C-2.375 13.6875 -2.375 13.6875 -5 13 C-7.33043558 9.50434664 -7.58763244 8.1134271 -7 4 C-3 0 -3 0 0 0 Z " fill="#1F1F1F" transform="translate(322,273)"/>
<path d="M0 0 C2.91517292 1.07401108 4.77810176 1.77810176 7 4 C7.375 6.875 7.375 6.875 7 10 C5 12.375 5 12.375 3 14 C2.01 13.67 1.02 13.34 0 13 C1.65 11.02 3.3 9.04 5 7 C3.02 6.01 1.04 5.02 -1 4 C-0.67 2.68 -0.34 1.36 0 0 Z " fill="#121212" transform="translate(178,273)"/>
<path d="M0 0 C2.7425957 2.7425957 3.50207198 3.74411385 4.6875 7.1875 C5.06455078 8.26064453 5.06455078 8.26064453 5.44921875 9.35546875 C5.63097656 9.89816406 5.81273437 10.44085938 6 11 C4.68 11 3.36 11 2 11 C2 10.01 2 9.02 2 8 C0.68 8 -0.64 8 -2 8 C-2 8.99 -2 9.98 -2 11 C-2.99 10.67 -3.98 10.34 -5 10 C-3.35 6.7 -1.7 3.4 0 0 Z " fill="#232323" transform="translate(298,417)"/>
<path d="M0 0 C3.3 0 6.6 0 10 0 C9.67 0.99 9.34 1.98 9 3 C8.01 2.67 7.02 2.34 6 2 C6 5.3 6 8.6 6 12 C5.01 12 4.02 12 3 12 C3 8.7 3 5.4 3 2 C2.01 2 1.02 2 0 2 C0 1.34 0 0.68 0 0 Z " fill="#585858" transform="translate(305,416)"/>
<path d="M0 0 C2.7425957 2.7425957 3.50207198 3.74411385 4.6875 7.1875 C5.06455078 8.26064453 5.06455078 8.26064453 5.44921875 9.35546875 C5.63097656 9.89816406 5.81273438 10.44085938 6 11 C4.68 11 3.36 11 2 11 C2 10.01 2 9.02 2 8 C0.68 8 -0.64 8 -2 8 C-2 8.99 -2 9.98 -2 11 C-2.99 10.67 -3.98 10.34 -5 10 C-3.35 6.7 -1.7 3.4 0 0 Z " fill="#232323" transform="translate(112,395)"/>
<path d="M0 0 C0.03738281 0.67546875 0.07476562 1.3509375 0.11328125 2.046875 C0.17902344 2.93890625 0.24476563 3.8309375 0.3125 4.75 C0.37050781 5.63171875 0.42851562 6.5134375 0.48828125 7.421875 C1.0641181 10.32303774 2.07596148 11.79225607 4 14 C1.44312331 13.65447612 -0.57501375 13.24912987 -2.8125 11.9375 C-4.83793908 8.63283625 -4.36377623 5.81965045 -4 2 C-1 0 -1 0 0 0 Z " fill="#101010" transform="translate(218,310)"/>
<path d="M0 0 C0.99 0 1.98 0 3 0 C3.33 5.28 3.66 10.56 4 16 C2.02 16 0.04 16 -2 16 C-1.34 15.67 -0.68 15.34 0 15 C0 10.05 0 5.1 0 0 Z " fill="#030303" transform="translate(238,308)"/>
<path d="M0 0 C0.226875 0.61875 0.45375 1.2375 0.6875 1.875 C1.84931972 4.22720631 1.84931972 4.22720631 4.5 5 C7 6 7 6 9 10 C5.37 10.33 1.74 10.66 -2 11 C-2 7.07103605 -0.99700137 3.80106772 0 0 Z " fill="#BDBDBD" transform="translate(236,277)"/>
<path d="M0 0 C3.14330223 0.3492558 4.79491452 0.83925733 7.3125 2.8125 C9 5 9 5 9 9 C5.51329166 7.8905928 2.22515763 6.73662334 -1 5 C-0.67 3.35 -0.34 1.7 0 0 Z " fill="#1D1D1D" transform="translate(215,271)"/>
<path d="M0 0 C0.33 1.65 0.66 3.3 1 5 C-0.28650706 5.69710731 -1.57940665 6.38242876 -2.875 7.0625 C-3.95394531 7.63677734 -3.95394531 7.63677734 -5.0546875 8.22265625 C-5.69664062 8.47917969 -6.33859375 8.73570312 -7 9 C-7.66 8.67 -8.32 8.34 -9 8 C-8.66410006 4.86493389 -7.97334828 3.974751 -5.625 1.75 C-3 0 -3 0 0 0 Z " fill="#1D1D1D" transform="translate(285,271)"/>
<path d="M0 0 C1.3125 2.5625 1.3125 2.5625 2 5 C1.34 5.66 0.68 6.32 0 7 C-0.66 6.34 -1.32 5.68 -2 5 C-4.65537372 4.43479997 -7.29144713 4.26211802 -10 4 C-9.1875 2.0625 -9.1875 2.0625 -8 0 C-4.65284689 -1.1157177 -3.28928478 -1.1807689 0 0 Z " fill="#C7C7C7" transform="translate(265,283)"/>
<path d="M0 0 C0.66 0 1.32 0 2 0 C2.67119549 1.4562545 3.33681807 2.91507867 4 4.375 C4.556875 5.59316406 4.556875 5.59316406 5.125 6.8359375 C6 9 6 9 6 11 C5.01 11 4.02 11 3 11 C2.67 10.34 2.34 9.68 2 9 C-0.02463255 8.34786708 -0.02463255 8.34786708 -2 8 C-2 8.99 -2 9.98 -2 11 C-2.66 11 -3.32 11 -4 11 C-2.7874262 7.27566618 -1.49140021 3.62197194 0 0 Z " fill="#232323" transform="translate(166,417)"/>
<path d="M0 0 C0.66 0 1.32 0 2 0 C2 3.3 2 6.6 2 10 C3.65 9.34 5.3 8.68 7 8 C7 5.69 7 3.38 7 1 C7.99 1.33 8.98 1.66 10 2 C10.1875 5.375 10.1875 5.375 10 9 C6.3558226 11.4294516 4.28758728 11.16179575 0 11 C0 7.37 0 3.74 0 0 Z " fill="#131313" transform="translate(276,417)"/>
<path d="M0 0 C1.32 0 2.64 0 4 0 C4 3.96 4 7.92 4 12 C2.68 12 1.36 12 0 12 C0 8.04 0 4.08 0 0 Z " fill="#696969" transform="translate(288,416)"/>
<path d="M0 0 C0.33 0 0.66 0 1 0 C1.19335938 0.9178125 1.38671875 1.835625 1.5859375 2.78125 C2.95178397 9.2183086 4.34408272 15.6310874 6 22 C5.34 22.33 4.68 22.66 4 23 C0.65875873 15.55602526 -2.39326563 8.14806465 0 0 Z " fill="#222222" transform="translate(168,191)"/>
<path d="M0 0 C0.99 0 1.98 0 3 0 C3.33 2.97 3.66 5.94 4 9 C5.32 9 6.64 9 8 9 C8.33 6.03 8.66 3.06 9 0 C9.33 0 9.66 0 10 0 C10.02688151 1.64574566 10.04634123 3.29161413 10.0625 4.9375 C10.07410156 5.85402344 10.08570313 6.77054687 10.09765625 7.71484375 C10 10 10 10 9 11 C5.5625 11.25 5.5625 11.25 2 11 C-0.67927341 6.98108988 -0.15601248 4.75838077 0 0 Z " fill="#363636" transform="translate(333,395)"/>
<path d="M0 0 C0.66 0 1.32 0 2 0 C1.67 2.31 1.34 4.62 1 7 C1.66 7.45375 2.32 7.9075 3 8.375 C3.66 8.91125 4.32 9.4475 5 10 C5 10.66 5 11.32 5 12 C2.125 11.6875 2.125 11.6875 -1 11 C-3 8 -3 8 -2.75 4.9375 C-2 2 -2 2 0 0 Z " fill="#1C1C1C" transform="translate(326,274)"/>
<path d="M0 0 C1.9375 0.625 1.9375 0.625 4 2 C5 4.875 5 4.875 5 8 C3.3125 10.375 3.3125 10.375 1 12 C-0.32 12 -1.64 12 -3 12 C-1.25 8.125 -1.25 8.125 1 7 C0.67 4.69 0.34 2.38 0 0 Z " fill="#1C1C1C" transform="translate(172,274)"/>
<path d="M0 0 C2.31 0 4.62 0 7 0 C5.68 0.33 4.36 0.66 3 1 C3 2.32 3 3.64 3 5 C3.99 5.33 4.98 5.66 6 6 C5.01 6 4.02 6 3 6 C3 7.32 3 8.64 3 10 C4.65 9.67 6.3 9.34 8 9 C8 9.66 8 10.32 8 11 C5.36 11 2.72 11 0 11 C0 7.37 0 3.74 0 0 Z " fill="#3A3A3A" transform="translate(265,417)"/>
<path d="M0 0 C-0.33589994 3.13506611 -1.02665172 4.025249 -3.375 6.25 C-6 8 -6 8 -9 8 C-8.67 6.68 -8.34 5.36 -8 4 C-8.66 3.67 -9.32 3.34 -10 3 C-6.27034861 0.96564469 -4.33094958 0 0 0 Z " fill="#1A1A1A" transform="translate(235,282)"/>
<path d="M0 0 C0.66 0 1.32 0 2 0 C2.99 3.3 3.98 6.6 5 10 C4.34 10.66 3.68 11.32 3 12 C1.68 12 0.36 12 -1 12 C-2.36884358 7.48281619 -1.47075246 4.41225737 0 0 Z " fill="#E4E4E4" transform="translate(249,281)"/>
<path d="M0 0 C2.31 0 4.62 0 7 0 C5.68 0.33 4.36 0.66 3 1 C3 2.32 3 3.64 3 5 C3.99 5.33 4.98 5.66 6 6 C5.01 6 4.02 6 3 6 C3 7.32 3 8.64 3 10 C4.32 10.33 5.64 10.66 7 11 C4.69 11 2.38 11 0 11 C0 7.37 0 3.74 0 0 Z " fill="#343434" transform="translate(214,417)"/>
<path d="M0 0 C0.99 0.33 1.98 0.66 3 1 C2.57847656 1.88042969 2.15695313 2.76085937 1.72265625 3.66796875 C0.90087891 5.41013672 0.90087891 5.41013672 0.0625 7.1875 C-0.48277344 8.33605469 -1.02804688 9.48460937 -1.58984375 10.66796875 C-2.79460131 13.51466736 -3.54776271 15.96027845 -4 19 C-4.99 18.67 -5.98 18.34 -7 18 C-5.26375242 11.5811453 -3.14819255 5.86215164 0 0 Z " fill="#2C2C2C" transform="translate(175,141)"/>
<path d="M0 0 C0.66 0 1.32 0 2 0 C2.99 1.98 3.98 3.96 5 6 C5.99 5.67 6.98 5.34 8 5 C7.34 6.65 6.68 8.3 6 10 C5.01 9.67 4.02 9.34 3 9 C2.67 8.34 2.34 7.68 2 7 C1.67 8.32 1.34 9.64 1 11 C0.34 11 -0.32 11 -1 11 C-0.67 7.37 -0.34 3.74 0 0 Z " fill="#3E3E3E" transform="translate(372,395)"/>
<path d="M0 0 C2.475 0.495 2.475 0.495 5 1 C5 3.31 5 5.62 5 8 C3.35 8.33 1.7 8.66 0 9 C0 6.03 0 3.06 0 0 Z " fill="#FBFBFB" transform="translate(123,396)"/>
<path d="M0 0 C2.96052484 3.36423277 3.92289822 6.69159287 5 11 C4.01 11 3.02 11 2 11 C2 10.01 2 9.02 2 8 C0.35 8 -1.3 8 -3 8 C-2.45276317 4.62537285 -1.9451 2.91765 0 0 Z " fill="#3F3F3F" transform="translate(294,395)"/>
<path d="M0 0 C2.96052484 3.36423277 3.92289822 6.69159287 5 11 C4.01 11 3.02 11 2 11 C2 10.01 2 9.02 2 8 C0.35 8 -1.3 8 -3 8 C-2.45276317 4.62537285 -1.9451 2.91765 0 0 Z " fill="#3F3F3F" transform="translate(175,395)"/>
<path d="M0 0 C3.63 0 7.26 0 11 0 C10.67 0.66 10.34 1.32 10 2 C9.01 1.67 8.02 1.34 7 1 C7 4.3 7 7.6 7 11 C6.01 11 5.02 11 4 11 C4 7.7 4 4.4 4 1 C2.68 0.67 1.36 0.34 0 0 Z " fill="#404040" transform="translate(278,395)"/>
<path d="M0 0 C3.63 0 7.26 0 11 0 C10.67 0.66 10.34 1.32 10 2 C9.01 1.67 8.02 1.34 7 1 C7 4.3 7 7.6 7 11 C6.01 11 5.02 11 4 11 C4 7.7 4 4.4 4 1 C2.68 0.67 1.36 0.34 0 0 Z " fill="#404040" transform="translate(181,395)"/>
<path d="M0 0 C2.8125 0.1875 2.8125 0.1875 6 1 C7.85233285 3.40803271 9 4.92741925 9 8 C5.81390075 7.64598897 4.20933322 7.16972964 1.6875 5.125 C0 3 0 3 0 0 Z " fill="#121212" transform="translate(265,282)"/>
<path d="M0 0 C2.9244007 4.38660105 1.82932683 7.96144831 1 13 C0.125 16.5625 0.125 16.5625 -1 19 C-1.99 19.33 -2.98 19.66 -4 20 C-2.68 13.4 -1.36 6.8 0 0 Z " fill="#242424" transform="translate(331,188)"/>
<path d="M0 0 C1.32 0.33 2.64 0.66 4 1 C4.33 2.65 4.66 4.3 5 6 C4.01 6.66 3.02 7.32 2 8 C1.26393501 11.56769552 1.26393501 11.56769552 1 15 C0.67 15 0.34 15 0 15 C0 10.05 0 5.1 0 0 Z " fill="#D3D3D3" transform="translate(241,308)"/>
<path d="M0 0 C0.33 1.32 0.66 2.64 1 4 C-1.8125 6.0625 -1.8125 6.0625 -5 8 C-5.99 7.67 -6.98 7.34 -8 7 C-7.62005832 4.24542282 -7.1926367 3.17979426 -5.125 1.25 C-3 0 -3 0 0 0 Z " fill="#141414" transform="translate(295,272)"/>
<path d="M0 0 C0.66 0 1.32 0 2 0 C2 3.3 2 6.6 2 10 C2.99 9.67 3.98 9.34 5 9 C5.33 8.01 5.66 7.02 6 6 C6.99 6 7.98 6 9 6 C8.125 9.875 8.125 9.875 7 11 C4.66702567 11.04092937 2.33294775 11.04241723 0 11 C0 7.37 0 3.74 0 0 Z " fill="#2D2D2D" transform="translate(186,417)"/>
<path d="M0 0 C1.13308594 0.16886719 2.26617187 0.33773438 3.43359375 0.51171875 C6.53822077 1.30628621 8.19701206 2.20274048 10.5625 4.3125 C3.48173749 4.72100553 -2.63675959 3.21670731 -9.4375 1.3125 C-5.66990285 -1.19923143 -4.38240641 -0.701384 0 0 Z " fill="#363636" transform="translate(235.4375,260.6875)"/>
<path d="M0 0 C0.66 0 1.32 0 2 0 C5 4.38461538 5 4.38461538 5 7 C5.66 7 6.32 7 7 7 C6.34 8.32 5.68 9.64 5 11 C4.01 9.68 3.02 8.36 2 7 C1.67 8.32 1.34 9.64 1 11 C0.34 10.67 -0.32 10.34 -1 10 C-0.67 6.7 -0.34 3.4 0 0 Z " fill="#313131" transform="translate(250,417)"/>
<path d="M0 0 C0.99 0.33 1.98 0.66 3 1 C3.125 4.375 3.125 4.375 3 8 C1 10 1 10 -2.125 10.125 C-3.548125 10.063125 -3.548125 10.063125 -5 10 C-5 9.34 -5 8.68 -5 8 C-3.02 7.67 -1.04 7.34 1 7 C0.34 5.02 -0.32 3.04 -1 1 C-0.67 0.67 -0.34 0.34 0 0 Z " fill="#1A1A1A" transform="translate(166,272)"/>
<path d="M0 0 C0.33 0.99 0.66 1.98 1 3 C0.67 3.33 0.34 3.66 0 4 C0.99 4.66 1.98 5.32 3 6 C2.34 6.66 1.68 7.32 1 8 C-3.55555556 7.44444444 -3.55555556 7.44444444 -5 6 C-5.04063832 4.33382885 -5.042721 2.66611905 -5 1 C-3.68 1 -2.36 1 -1 1 C-0.67 0.67 -0.34 0.34 0 0 Z " fill="#323232" transform="translate(347,264)"/>
<path d="M0 0 C3.82097239 0.53069061 6.06171403 1.49701566 9 4 C8.34 4 7.68 4 7 4 C7 4.99 7 5.98 7 7 C3.76509224 6.44225728 2.02144994 5.62788492 0 3 C0 2.01 0 1.02 0 0 Z " fill="#161616" transform="translate(297,281)"/>
<path d="M0 0 C0.99 0.33 1.98 0.66 3 1 C2.01 2.98 1.02 4.96 0 7 C2.31 7.33 4.62 7.66 7 8 C7 8.66 7 9.32 7 10 C4.125 10.125 4.125 10.125 1 10 C-1 8 -1 8 -1.1875 4.4375 C-1 1 -1 1 0 0 Z " fill="#171717" transform="translate(332,272)"/>
<path d="M0 0 C0.99 0.33 1.98 0.66 3 1 C2.34 1 1.68 1 1 1 C2.73559438 4.057952 4.38472619 6.63379989 7 9 C3.71023192 10.09658936 2.28696233 9.79953138 -1 9 C-0.67 6.03 -0.34 3.06 0 0 Z " fill="#BDBDBD" transform="translate(195,272)"/>
<path d="M0 0 C0.928125 0.5259375 0.928125 0.5259375 1.875 1.0625 C2.57625 1.371875 3.2775 1.68125 4 2 C4.66 1.67 5.32 1.34 6 1 C6.125 3.375 6.125 3.375 6 6 C5.34 6.66 4.68 7.32 4 8 C1.4375 7.75 1.4375 7.75 -1 7 C-1.33 6.34 -1.66 5.68 -2 5 C-1.01 4.67 -0.02 4.34 1 4 C0.67 2.68 0.34 1.36 0 0 Z " fill="#2B2B2B" transform="translate(152,264)"/>
<path d="M0 0 C0.66 0.33 1.32 0.66 2 1 C2 1.66 2 2.32 2 3 C3.9600281 4.63676257 3.9600281 4.63676257 6 6 C5.67 7.65 5.34 9.3 5 11 C3.02 11 1.04 11 -1 11 C-0.67 10.34 -0.34 9.68 0 9 C1.98 9.495 1.98 9.495 4 10 C4 9.01 4 8.02 4 7 C3.360625 6.7525 2.72125 6.505 2.0625 6.25 C0 5 0 5 -0.8125 2.9375 C-0.874375 2.298125 -0.93625 1.65875 -1 1 C-0.67 0.67 -0.34 0.34 0 0 Z " fill="#272727" transform="translate(248,395)"/>
<path d="M0 0 C4.20626034 1.50223584 5.73900021 4.28550034 8 8 C5.75 8.3125 5.75 8.3125 3 8 C0.625 5.6875 0.625 5.6875 -1 3 C-0.67 2.01 -0.34 1.02 0 0 Z " fill="#141414" transform="translate(245,316)"/>
<path d="M0 0 C0.99 0 1.98 0 3 0 C3.66 1.98 4.32 3.96 5 6 C2 8 2 8 -0.1875 7.625 C-0.785625 7.41875 -1.38375 7.2125 -2 7 C-1.34 4.69 -0.68 2.38 0 0 Z " fill="#D3D3D3" transform="translate(169,275)"/>
<path d="M0 0 C0.99 0 1.98 0 3 0 C3 3.63 3 7.26 3 11 C2.01 11 1.02 11 0 11 C0 7.37 0 3.74 0 0 Z " fill="#313131" transform="translate(197,417)"/>
<path d="M0 0 C0.99 0 1.98 0 3 0 C3 3.63 3 7.26 3 11 C2.01 11 1.02 11 0 11 C0 7.37 0 3.74 0 0 Z " fill="#313131" transform="translate(159,395)"/>
<path d="M0 0 C4.31392226 0.4793247 6.16569547 1.7457985 9 5 C5.8035914 6.06546953 3.34252724 6.07427838 0 6 C0 4.02 0 2.04 0 0 Z " fill="#CFCFCF" transform="translate(203,276)"/>
<path d="M0 0 C0.66 0 1.32 0 2 0 C2 2.31 2 4.62 2 7 C-0.70879335 8.35439668 -3.00933268 8.06501451 -6 8 C-5.34 6.68 -4.68 5.36 -4 4 C-2.68 4.33 -1.36 4.66 0 5 C0 3.35 0 1.7 0 0 Z " fill="#212121" transform="translate(161,269)"/>
<path d="M0 0 C0.33 0 0.66 0 1 0 C1.66 3.63 2.32 7.26 3 11 C1.68 11 0.36 11 -1 11 C-2.1875 8.3125 -2.1875 8.3125 -3 5 C-1.6875 2.125 -1.6875 2.125 0 0 Z " fill="#2C2C2C" transform="translate(260,417)"/>
<path d="M0 0 C2.31 0.33 4.62 0.66 7 1 C7.625 3.8125 7.625 3.8125 8 7 C7.01 8.485 7.01 8.485 6 10 C5.34 9.67 4.68 9.34 4 9 C4.33 7.68 4.66 6.36 5 5 C3.02 4.01 1.04 3.02 -1 2 C-0.67 1.34 -0.34 0.68 0 0 Z " fill="#D2D2D2" transform="translate(299,279)"/>
<path d="M0 0 C0.66 0.33 1.32 0.66 2 1 C1.67 1.33 1.34 1.66 1 2 C1.99 2.33 2.98 2.66 4 3 C5.1875 5.5625 5.1875 5.5625 6 8 C5.01 8.495 5.01 8.495 4 9 C4 8.34 4 7.68 4 7 C3.4225 6.896875 2.845 6.79375 2.25 6.6875 C-0.32049158 5.90207202 -1.93657284 4.69495803 -4 3 C-2.68 2.01 -1.36 1.02 0 0 Z " fill="#DBDBDB" transform="translate(292,277)"/>
<path d="M0 0 C0.66 1.32 1.32 2.64 2 4 C2.33 2.68 2.66 1.36 3 0 C3.66 2.31 4.32 4.62 5 7 C4.01 7.66 3.02 8.32 2 9 C0.68 8.01 -0.64 7.02 -2 6 C-1.34 4.02 -0.68 2.04 0 0 Z " fill="#CBCBCB" transform="translate(328,275)"/>
<path d="M0 0 C0.66 0 1.32 0 2 0 C2 1.65 2 3.3 2 5 C4.97 5.495 4.97 5.495 8 6 C8 6.66 8 7.32 8 8 C2.25 8.125 2.25 8.125 0 7 C0 4.69 0 2.38 0 0 Z " fill="#1B1B1B" transform="translate(337,269)"/>
<path d="M0 0 C-0.1875 2.3125 -0.1875 2.3125 -1 5 C-3.5625 6.8125 -3.5625 6.8125 -6 8 C-6.33 7.01 -6.66 6.02 -7 5 C-2.25 0 -2.25 0 0 0 Z " fill="#131313" transform="translate(313,273)"/>
<path d="M0 0 C0.33 0 0.66 0 1 0 C1.33 3.63 1.66 7.26 2 11 C1.01 11 0.02 11 -1 11 C-2.25 3.375 -2.25 3.375 0 0 Z " fill="#252525" transform="translate(382,395)"/>
<path d="M0 0 C0.33 0 0.66 0 1 0 C1 1.65 1 3.3 1 5 C1.66 5.33 2.32 5.66 3 6 C3 6.99 3 7.98 3 9 C0.69 8.67 -1.62 8.34 -4 8 C-3.34 6.35 -2.68 4.7 -2 3 C-1.34 3 -0.68 3 0 3 C0 2.01 0 1.02 0 0 Z " fill="#C6C6C6" transform="translate(336,271)"/>
<path d="M0 0 C2.375 0.3125 2.375 0.3125 5 1 C7 4 7 4 7 7 C4.625 6.3125 4.625 6.3125 2 5 C0.6875 2.375 0.6875 2.375 0 0 Z " fill="#090909" transform="translate(196,273)"/>
<path d="M0 0 C2 2 2 2 2.125 5.125 C2.08375 6.07375 2.0425 7.0225 2 8 C0.02 8.33 -1.96 8.66 -4 9 C-4 6 -4 6 -2.5625 4.5 C-2.046875 4.005 -1.53125 3.51 -1 3 C-0.67 2.01 -0.34 1.02 0 0 Z " fill="#CACACA" transform="translate(313,273)"/>
<path d="M0 0 C0.66 0.99 1.32 1.98 2 3 C3.32381517 4.67423683 4.65576661 6.34211215 6 8 C3.3333581 9.33332095 1.83319697 8.67102033 -1 8 C-1.125 2.25 -1.125 2.25 0 0 Z " fill="#CBCBCB" transform="translate(186,273)"/>
<path d="M0 0 C1.32 0 2.64 0 4 0 C3.67 1.65 3.34 3.3 3 5 C0.69 5 -1.62 5 -4 5 C-2.25 2.5 -2.25 2.5 0 0 Z " fill="#EBEBEB" transform="translate(272,275)"/>
<path d="M0 0 C0.33 0 0.66 0 1 0 C1 3.3 1 6.6 1 10 C-0.32 9.01 -1.64 8.02 -3 7 C-2.25 2.25 -2.25 2.25 0 0 Z " fill="#DE912A" transform="translate(246,207)"/>
<path d="M0 0 C3.10468986 2.54020079 3.98485936 5.17370067 5 9 C5 10.32 5 11.64 5 13 C4.34 13 3.68 13 3 13 C2.49242138 11.58603098 1.99425075 10.16868271 1.5 8.75 C1.08234375 7.56664062 1.08234375 7.56664062 0.65625 6.359375 C0 4 0 4 0 0 Z " fill="#1F1F1F" transform="translate(326,148)"/>
<path d="M0 0 C1.7290774 -0.02725341 3.45828176 -0.04650987 5.1875 -0.0625 C6.15042969 -0.07410156 7.11335938 -0.08570312 8.10546875 -0.09765625 C10.85576513 -0.00486622 13.32479591 0.37888315 16 1 C12.61496962 3.25668692 11.87444105 3.18818083 8 2.75 C7.13375 2.66234375 6.2675 2.5746875 5.375 2.484375 C3 2 3 2 0 0 Z " fill="#2F2F2F" transform="translate(256,98)"/>
<path d="M0 0 C0.99 0 1.98 0 3 0 C3.99 2.97 4.98 5.94 6 9 C5.34 9.66 4.68 10.32 4 11 C3.32880451 9.5437455 2.66318193 8.08492133 2 6.625 C1.62875 5.81289063 1.2575 5.00078125 0.875 4.1640625 C0 2 0 2 0 0 Z " fill="#1D1D1D" transform="translate(133,395)"/>
<path d="M0 0 C0.66 0.66 1.32 1.32 2 2 C-1.51187196 4.40814077 -3.72656908 5.36629408 -8 5 C-7.67 3.68 -7.34 2.36 -7 1 C-3.625 0.375 -3.625 0.375 0 0 Z " fill="#D4D4D4" transform="translate(221,279)"/>
<path d="M0 0 C3.74986874 1.24995625 4.62163516 2.90091854 7 6 C8.31494512 7.35147138 9.64264858 8.69112542 11 10 C6.73327616 9.52591957 4.7544952 7.11692878 2 4 C0.6875 1.6875 0.6875 1.6875 0 0 Z " fill="#1E1E1E" transform="translate(186,234)"/>
<path d="M0 0 C2.4375 0.6875 2.4375 0.6875 5 2 C5.8125 4.625 5.8125 4.625 6 7 C3.69 6.01 1.38 5.02 -1 4 C-0.67 2.68 -0.34 1.36 0 0 Z " fill="#202020" transform="translate(178,273)"/>
<path d="M0 0 C0.66 0 1.32 0 2 0 C1.48041715 4.37934119 0.94324258 8.68803391 0 13 C-2 11 -2 11 -2.25 8.75 C-1.96379343 5.60172773 -1.09940961 2.95466333 0 0 Z " fill="#D7902E" transform="translate(248,126)"/>
<path d="M0 0 C-1.40552299 1.03612271 -2.82491694 2.05344925 -4.25 3.0625 C-5.43335938 3.91521484 -5.43335938 3.91521484 -6.640625 4.78515625 C-9 6 -9 6 -11.296875 5.68359375 C-11.85890625 5.45800781 -12.4209375 5.23242188 -13 5 C-11.40377344 3.96679519 -9.79770894 2.94877571 -8.1875 1.9375 C-7.29417969 1.36902344 -6.40085938 0.80054687 -5.48046875 0.21484375 C-3 -1 -3 -1 0 0 Z " fill="#1D1D1D" transform="translate(212,108)"/>
<path d="M0 0 C1.50559539 1.96382007 2.89131683 3.78263366 4 6 C4.99 6.33 5.98 6.66 7 7 C7.33 6.34 7.66 5.68 8 5 C8 5.99 8 6.98 8 8 C5.1875 8.25 5.1875 8.25 2 8 C0.0625 6.25 0.0625 6.25 -1 4 C-0.6875 1.75 -0.6875 1.75 0 0 Z " fill="#2B2B2B" transform="translate(164,398)"/>
<path d="M0 0 C0.66 0.33 1.32 0.66 2 1 C2 3.97 2 6.94 2 10 C0.68 9.67 -0.64 9.34 -2 9 C-1.34 6.03 -0.68 3.06 0 0 Z " fill="#2A2A2A" transform="translate(130,368)"/>
<path d="M0 0 C1.89213369 2.38573379 3.02391783 4.07175348 4 7 C1.69 7 -0.62 7 -3 7 C-2.01 4.69 -1.02 2.38 0 0 Z " fill="#A5A5A5" transform="translate(163,313)"/>
<path d="M0 0 C2.31 0 4.62 0 7 0 C7.33 1.32 7.66 2.64 8 4 C6.68 4.33 5.36 4.66 4 5 C2.68 3.35 1.36 1.7 0 0 Z " fill="#DFDFDF" transform="translate(268,281)"/>
<path d="M0 0 C2.64 0 5.28 0 8 0 C5.47043472 3.0916909 2.77545388 3.90931332 -1 5 C-0.67 3.35 -0.34 1.7 0 0 Z " fill="#EBEBEB" transform="translate(224,281)"/>
<path d="M0 0 C0.99 0.33 1.98 0.66 3 1 C0.03 4.3 -2.94 7.6 -6 11 C-6 7.39426104 -5.18292538 6.58663434 -3 3.8125 C-2.443125 3.09707031 -1.88625 2.38164062 -1.3125 1.64453125 C-0.879375 1.10183594 -0.44625 0.55914062 0 0 Z " fill="#1C1C1C" transform="translate(306,356)"/>
<path d="M0 0 C2.375 0.1875 2.375 0.1875 5 1 C6.3125 3.5625 6.3125 3.5625 7 6 C4.625 5.8125 4.625 5.8125 2 5 C0.6875 2.4375 0.6875 2.4375 0 0 Z " fill="#121212" transform="translate(315,281)"/>
<path d="M0 0 C2.31 0 4.62 0 7 0 C7.33 1.32 7.66 2.64 8 4 C4.28400809 4.20086443 3.22791555 4.1519437 0 2 C0 1.34 0 0.68 0 0 Z " fill="#DFDFDF" transform="translate(279,280)"/>
<path d="M0 0 C0.66 0.66 1.32 1.32 2 2 C-0.97 4.475 -0.97 4.475 -4 7 C-5.0625 5.125 -5.0625 5.125 -6 3 C-5.67 2.34 -5.34 1.68 -5 1 C-2.5625 0.25 -2.5625 0.25 0 0 Z " fill="#BABABA" transform="translate(182,279)"/>
<path d="M0 0 C0.12375 0.5775 0.2475 1.155 0.375 1.75 C1.01416567 4.05099641 1.79305636 5.94109615 3 8 C3.66 8.33 4.32 8.66 5 9 C2.625 8.6875 2.625 8.6875 0 8 C-2 5 -2 5 -1.6875 2.875 C-1 1 -1 1 0 0 Z " fill="#323232" transform="translate(352,397)"/>
<path d="M0 0 C0.12375 0.5775 0.2475 1.155 0.375 1.75 C1.01416567 4.05099641 1.79305636 5.94109615 3 8 C3.66 8.33 4.32 8.66 5 9 C2.625 8.6875 2.625 8.6875 0 8 C-2 5 -2 5 -1.6875 2.875 C-1 1 -1 1 0 0 Z " fill="#323232" transform="translate(213,397)"/>
<path d="M0 0 C0.66 0 1.32 0 2 0 C2 3.63 2 7.26 2 11 C1.01 10.34 0.02 9.68 -1 9 C-0.67 6.03 -0.34 3.06 0 0 Z " fill="#1B1B1B" transform="translate(242,395)"/>
<path d="M0 0 C3 3.625 3 3.625 3 7 C1.35 7 -0.3 7 -2 7 C-1.125 2.25 -1.125 2.25 0 0 Z " fill="#E9E9E9" transform="translate(322,363)"/>
<path d="M0 0 C2.00720923 0.28674418 4.0085944 0.61866701 6 1 C6.33 1.99 6.66 2.98 7 4 C6.01 4.99 5.02 5.98 4 7 C3.87625 6.071875 3.87625 6.071875 3.75 5.125 C3.18741541 2.81562433 3.18741541 2.81562433 0.9375 1.75 C0.298125 1.5025 -0.34125 1.255 -1 1 C-0.67 0.67 -0.34 0.34 0 0 Z " fill="#BEBEBE" transform="translate(317,279)"/>
<path d="M0 0 C0.33 0 0.66 0 1 0 C1.66 3.96 2.32 7.92 3 12 C2.01 12.33 1.02 12.66 0 13 C-0.19658808 11.58456585 -0.38187546 10.16755969 -0.5625 8.75 C-0.66691406 7.96109375 -0.77132812 7.1721875 -0.87890625 6.359375 C-1.00027349 3.99467126 -0.69633257 2.2488963 0 0 Z " fill="#3C3C3C" transform="translate(168,191)"/>
<path d="M0 0 C0.99 0 1.98 0 3 0 C3.33 1.32 3.66 2.64 4 4 C2.68 4 1.36 4 0 4 C0 4.99 0 5.98 0 7 C-0.99 6.67 -1.98 6.34 -3 6 C-2.01 4.02 -1.02 2.04 0 0 Z " fill="#767676" transform="translate(296,421)"/>
<path d="M0 0 C0.99 0 1.98 0 3 0 C3.33 1.32 3.66 2.64 4 4 C2.68 4 1.36 4 0 4 C0 4.99 0 5.98 0 7 C-0.99 6.67 -1.98 6.34 -3 6 C-2.01 4.02 -1.02 2.04 0 0 Z " fill="#767676" transform="translate(110,399)"/>
<path d="M0 0 C0.66 0.33 1.32 0.66 2 1 C1.835 2.11375 1.67 3.2275 1.5 4.375 C0.9544542 7.72032033 0.9544542 7.72032033 1 10 C0.01 9.67 -0.98 9.34 -2 9 C-2.125 5.625 -2.125 5.625 -2 2 C-1.34 1.34 -0.68 0.68 0 0 Z " fill="#151515" transform="translate(221,395)"/>
<path d="M0 0 C0.309375 0.639375 0.61875 1.27875 0.9375 1.9375 C1.8345163 3.93610821 1.8345163 3.93610821 3 5 C5.32817964 5.36760731 7.6618385 5.70241581 10 6 C10 6.33 10 6.66 10 7 C8.54176788 7.0270043 7.08339325 7.04639787 5.625 7.0625 C4.81289062 7.07410156 4.00078125 7.08570313 3.1640625 7.09765625 C1 7 1 7 -1 6 C-0.67 4.02 -0.34 2.04 0 0 Z " fill="#2C2C2C" transform="translate(186,371)"/>
<path d="M0 0 C1.32 0.33 2.64 0.66 4 1 C4 1.66 4 2.32 4 3 C3.01 3 2.02 3 1 3 C0.67 3.66 0.34 4.32 0 5 C0 4.34 0 3.68 0 3 C-4.455 3.495 -4.455 3.495 -9 4 C-8.67 3.01 -8.34 2.02 -8 1 C-5.36 1.33 -2.72 1.66 0 2 C0 1.34 0 0.68 0 0 Z " fill="#6F6F6F" transform="translate(275,278)"/>
<path d="M0 0 C0.66 0 1.32 0 2 0 C2.33 2.64 2.66 5.28 3 8 C2.01 8.33 1.02 8.66 0 9 C0 6.03 0 3.06 0 0 Z " fill="#ECECEC" transform="translate(189,418)"/>
<path d="M0 0 C1.98 0.99 1.98 0.99 4 2 C4 4.31 4 6.62 4 9 C3.01 9.33 2.02 9.66 1 10 C1.03255208 7.98177083 1.06510417 5.96354167 1.09765625 3.9453125 C1.12649242 1.91814596 1.12649242 1.91814596 0 0 Z " fill="#0F0F0F" transform="translate(324,417)"/>
<path d="M0 0 C1 3 1 3 0.0625 5.1875 C-0.4634375 6.0846875 -0.4634375 6.0846875 -1 7 C-1 6.34 -1 5.68 -1 5 C-1.99 5 -2.98 5 -4 5 C-4 3.68 -4 2.36 -4 1 C-2.68 0.67 -1.36 0.34 0 0 Z " fill="#E8E8E8" transform="translate(272,417)"/>
<path d="M0 0 C1.98 0.99 1.98 0.99 4 2 C4 4.31 4 6.62 4 9 C3.01 9.33 2.02 9.66 1 10 C1.03255208 7.98177083 1.06510417 5.96354167 1.09765625 3.9453125 C1.12649242 1.91814596 1.12649242 1.91814596 0 0 Z " fill="#0F0F0F" transform="translate(152,395)"/>
<path d="M0 0 C0.99 0 1.98 0 3 0 C2.46599103 3.91606575 1.80330533 6.39338934 0 10 C0 6.7 0 3.4 0 0 Z " fill="#D9D9D9" transform="translate(177,418)"/>
<path d="M0 0 C2.97 0 5.94 0 9 0 C9 1.65 9 3.3 9 5 C8.34 4.34 7.68 3.68 7 3 C4.68234271 2.28072705 2.34904126 1.6090107 0 1 C0 0.67 0 0.34 0 0 Z " fill="#4D4D4D" transform="translate(190,355)"/>
<path d="M0 0 C3.465 1.485 3.465 1.485 7 3 C7 3.33 7 3.66 7 4 C3.7 4 0.4 4 -3 4 C-3.33 3.34 -3.66 2.68 -4 2 C-2.68 2 -1.36 2 0 2 C0 1.34 0 0.68 0 0 Z " fill="#F6B040" transform="translate(282,150)"/>
<path d="M0 0 C2.97 0.495 2.97 0.495 6 1 C6 1.66 6 2.32 6 3 C4.02 3.33 2.04 3.66 0 4 C0 2.68 0 1.36 0 0 Z " fill="#F6F6F6" transform="translate(268,423)"/>
<path d="M0 0 C0.66 0.33 1.32 0.66 2 1 C0.1875 4 0.1875 4 -2 7 C-2.99 7 -3.98 7 -5 7 C-3.35 4.69 -1.7 2.38 0 0 Z " fill="#151515" transform="translate(320,223)"/>
<path d="M0 0 C0.66 1.32 1.32 2.64 2 4 C0.68 4 -0.64 4 -2 4 C-2 4.99 -2 5.98 -2 7 C-2.66 7 -3.32 7 -4 7 C-3.39816251 4.97954558 -2.72693904 2.97888961 -2 1 C-1.34 0.67 -0.68 0.34 0 0 Z " fill="#777777" transform="translate(166,421)"/>
<path d="M0 0 C0.99 0 1.98 0 3 0 C2.41321669 3.52069985 1.64350079 5.71299843 0 9 C0 6.03 0 3.06 0 0 Z " fill="#ADADAD" transform="translate(333,418)"/>
<path d="M0 0 C0.99 0 1.98 0 3 0 C2.41321669 3.52069985 1.64350079 5.71299843 0 9 C0 6.03 0 3.06 0 0 Z " fill="#ADADAD" transform="translate(226,418)"/>
<path d="M0 0 C0.66 0 1.32 0 2 0 C1.25 4.75 1.25 4.75 -1 7 C-3.625 7.125 -3.625 7.125 -6 7 C-5.071875 6.6596875 -5.071875 6.6596875 -4.125 6.3125 C-1.38589791 4.62070165 -0.94975528 3.00755839 0 0 Z " fill="#1F1F1F" transform="translate(129,399)"/>
<path d="M0 0 C0.66 0 1.32 0 2 0 C1.67 2.31 1.34 4.62 1 7 C-0.65 7 -2.3 7 -4 7 C-3.525625 6.401875 -3.05125 5.80375 -2.5625 5.1875 C-0.83534256 2.99617076 -0.83534256 2.99617076 0 0 Z " fill="#1C1C1C" transform="translate(316,371)"/>
<path d="M0 0 C0 1.65 0 3.3 0 5 C-2.31 4.67 -4.62 4.34 -7 4 C-7 3.34 -7 2.68 -7 2 C-1.125 0 -1.125 0 0 0 Z " fill="#454545" transform="translate(284,364)"/>
<path d="M0 0 C-0.33 1.32 -0.66 2.64 -1 4 C-2.98 4 -4.96 4 -7 4 C-4.83989616 0.75984424 -3.8842653 0 0 0 Z " fill="#EAEAEA" transform="translate(307,276)"/>
<path d="M0 0 C-1 3 -1 3 -2.875 4.1875 C-5 5 -5 5 -8 5 C-8 4.34 -8 3.68 -8 3 C-2.25 0 -2.25 0 0 0 Z " fill="#1B1B1B" transform="translate(291,252)"/>
<path d="M0 0 C2.64 0.66 5.28 1.32 8 2 C6.68 2.33 5.36 2.66 4 3 C4.33 4.32 4.66 5.64 5 7 C4.34 7 3.68 7 3 7 C2.690625 6.21625 2.38125 5.4325 2.0625 4.625 C1.07124962 2.07669872 1.07124962 2.07669872 0 0 Z " fill="#CB9A46" transform="translate(273,206)"/>
<path d="M0 0 C3.79588866 0.54226981 5.47211993 2.20127563 8 5 C4.40142046 5 2.90548882 4.04169485 0 2 C0 1.34 0 0.68 0 0 Z " fill="#242424" transform="translate(293,110)"/>
<path d="M0 0 C0 0.33 0 0.66 0 1 C-7.625 2.25 -7.625 2.25 -11 0 C-7.18243176 -1.37432457 -3.92744671 -0.67975039 0 0 Z " fill="#363636" transform="translate(239,99)"/>
<path d="M0 0 C0.66 0.66 1.32 1.32 2 2 C1.625 5.125 1.625 5.125 1 8 C0.01 8.33 -0.98 8.66 -2 9 C-1.34 6.03 -0.68 3.06 0 0 Z " fill="#303030" transform="translate(329,199)"/>
</svg>
